SplineFontDB: 3.2
FontName: xkcd_hun
FullName: xkcd HUN
FamilyName: xkcd
Weight: Medium
Copyright: Created by operator[], with FontForge 2.0 (http://fontforge.sf.net)
Version: 001.000
ItalicAngle: 0
UnderlinePosition: -150
UnderlineWidth: 50
Ascent: 800
Descent: 200
InvalidEm: 0
sfntRevision: 0x00010000
LayerCount: 2
Layer: 0 1 "Back" 1
Layer: 1 1 "Fore" 0
XUID: [1021 861 1336096926 16738484]
StyleMap: 0x0040
FSType: 0
OS2Version: 1
OS2_WeightWidthSlopeOnly: 0
OS2_UseTypoMetrics: 0
CreationTime: 1247497001
ModificationTime: 1694937815
PfmFamily: 17
TTFWeight: 500
TTFWidth: 5
LineGap: 90
VLineGap: 0
Panose: 2 0 6 3 0 0 0 0 0 0
OS2TypoAscent: 800
OS2TypoAOffset: 0
OS2TypoDescent: -200
OS2TypoDOffset: 0
OS2TypoLinegap: 90
OS2WinAscent: 755
OS2WinAOffset: 0
OS2WinDescent: 172
OS2WinDOffset: 0
HheadAscent: 755
HheadAOffset: 0
HheadDescent: -172
HheadDOffset: 0
OS2SubXSize: 650
OS2SubYSize: 699
OS2SubXOff: 0
OS2SubYOff: 140
OS2SupXSize: 650
OS2SupYSize: 699
OS2SupXOff: 0
OS2SupYOff: 479
OS2StrikeYSize: 49
OS2StrikeYPos: 258
OS2Vendor: 'PfEd'
OS2CodePages: 00000001.00000000
OS2UnicodeRanges: 00000001.00000000.00000000.00000000
MarkAttachClasses: 1
DEI: 91125
ShortTable: cvt  2
  33
  633
EndShort
ShortTable: maxp 16
  1
  0
  78
  76
  3
  0
  0
  2
  0
  1
  1
  0
  64
  46
  0
  0
EndShort
LangName: 1033
GaspTable: 1 65535 2 0
Encoding: UnicodeBmp
UnicodeInterp: none
NameList: AGL For New Fonts
DisplaySize: -48
AntiAlias: 1
FitToEm: 0
WinInfo: 8151 33 14
BeginPrivate: 0
EndPrivate
TeXData: 1 0 0 272629 136314 90876 636486 1048576 90876 783286 444596 497025 792723 393216 433062 380633 303038 157286 324010 404750 52429 2506097 1059062 262144
BeginChars: 65539 95

StartChar: .notdef
Encoding: 65536 -1 0
Width: 364
Flags: W
LayerCount: 2
Fore
SplineSet
33 0 m 1,0,-1
 33 666 l 1,1,-1
 298 666 l 1,2,-1
 298 0 l 1,3,-1
 33 0 l 1,0,-1
66 33 m 1,4,-1
 265 33 l 1,5,-1
 265 633 l 1,6,-1
 66 633 l 1,7,-1
 66 33 l 1,4,-1
EndSplineSet
Validated: 1
EndChar

StartChar: exclam
Encoding: 33 33 4
Width: 185
GlyphClass: 2
Flags: W
LayerCount: 2
Fore
SplineSet
69 608 m 0,0,1
 77 631 77 631 84 640.5 c 128,-1,2
 91 650 91 650 101 650 c 256,3,4
 111 650 111 650 131 640 c 0,5,6
 161 623 161 623 161 601 c 0,7,8
 161 593 161 593 157 584 c 0,9,10
 144 555 144 555 133 376 c 0,11,12
 128 273 128 273 114.5 227.5 c 128,-1,13
 101 182 101 182 75 182 c 0,14,15
 62 182 62 182 45 192 c 0,16,17
 33 200 33 200 33 289 c 0,18,19
 33 373 33 373 43.5 471.5 c 128,-1,20
 54 570 54 570 69 608 c 0,0,1
49 92 m 0,21,22
 70 115 70 115 97 115 c 0,23,24
 115 115 115 115 128.5 103.5 c 128,-1,25
 142 92 142 92 145 72 c 0,26,27
 146 67 146 67 146 62 c 0,28,29
 146 36 146 36 125 18.5 c 128,-1,30
 104 1 104 1 80 1 c 0,31,32
 48 1 48 1 37 30 c 0,33,34
 33 37 33 37 33 47 c 0,35,36
 33 72 33 72 49 92 c 0,21,22
EndSplineSet
Validated: 1
EndChar

StartChar: quotedbl
Encoding: 34 34 5
Width: 253
GlyphClass: 2
Flags: W
LayerCount: 2
Fore
SplineSet
89 730 m 0,0,1
 95 740 95 740 111.5 747.5 c 128,-1,2
 128 755 128 755 145 755 c 0,3,4
 169 755 169 755 184 726 c 128,-1,5
 199 697 199 697 216 618 c 0,6,7
 234 535 234 535 234 488 c 0,8,9
 234 469 234 469 229 466 c 0,10,11
 220 456 220 456 209 456 c 0,12,13
 183 456 183 456 158.5 496 c 128,-1,14
 134 536 134 536 129 586 c 0,15,16
 126 623 126 623 117 653.5 c 128,-1,17
 108 684 108 684 98 689 c 0,18,19
 85 697 85 697 85 714 c 0,20,21
 85 722 85 722 89 730 c 0,0,1
-5 627 m 0,22,23
 -11 667 -11 667 -11 682 c 0,24,25
 -11 707 -11 707 7 707 c 0,26,27
 14 707 14 707 25 705 c 0,28,29
 53 699 53 699 76 650 c 128,-1,30
 99 601 99 601 99 553 c 0,31,32
 99 530 99 530 93 514 c 0,33,34
 83 485 83 485 74 485 c 0,35,36
 66 485 66 485 43 507 c 0,37,38
 30 522 30 522 16 556.5 c 128,-1,39
 2 591 2 591 -5 627 c 0,22,23
EndSplineSet
Validated: 1
EndChar

StartChar: quotesingle
Encoding: 39 39 6
Width: 186
GlyphClass: 2
Flags: W
LayerCount: 2
Fore
SplineSet
88 661 m 0,0,1
 114 674 114 674 135 674 c 0,2,3
 141 674 141 674 144 673 c 0,4,5
 162 661 162 661 162 627 c 0,6,7
 162 575 162 575 131 517 c 128,-1,8
 100 459 100 459 67 459 c 0,9,10
 42 459 42 459 26 472 c 128,-1,11
 10 485 10 485 10 503 c 0,12,13
 10 520 10 520 24 534 c 0,14,15
 34 544 34 544 41.5 563.5 c 128,-1,16
 49 583 49 583 49 600 c 0,17,18
 49 615 49 615 60.5 633 c 128,-1,19
 72 651 72 651 88 661 c 0,0,1
EndSplineSet
Validated: 1
EndChar

StartChar: comma
Encoding: 44 44 7
Width: 211
GlyphClass: 2
Flags: W
LayerCount: 2
Fore
SplineSet
85 107 m 0,0,1
 85 134 85 134 95 148.5 c 128,-1,2
 105 163 105 163 120 163 c 0,3,4
 152 163 152 163 178 116 c 0,5,6
 187 98 187 98 187 72 c 0,7,8
 187 38 187 38 171.5 0 c 128,-1,9
 156 -38 156 -38 130 -64 c 0,10,11
 118 -75 118 -75 94 -120 c 0,12,13
 81 -142 81 -142 62 -154 c 128,-1,14
 43 -166 43 -166 25 -166 c 0,15,16
 9 -166 9 -166 -1.5 -156.5 c 128,-1,17
 -12 -147 -12 -147 -12 -130 c 0,18,19
 -12 -125 -12 -125 -11 -120 c 0,20,21
 -3 -79 -3 -79 12 -64 c 0,22,23
 37 -45 37 -45 61 10.5 c 128,-1,24
 85 66 85 66 85 107 c 0,0,1
EndSplineSet
Validated: 1
EndChar

StartChar: hyphen
Encoding: 45 45 8
Width: 277
GlyphClass: 2
Flags: W
LayerCount: 2
Fore
SplineSet
-7 340 m 0,0,1
 0 350 0 350 56 350 c 0,2,3
 111 350 111 350 170 341 c 128,-1,4
 229 332 229 332 243 319 c 0,5,6
 253 310 253 310 253 300 c 0,7,8
 253 277 253 277 215.5 257.5 c 128,-1,9
 178 238 178 238 130 238 c 0,10,11
 79 238 79 238 33.5 265.5 c 128,-1,12
 -12 293 -12 293 -12 323 c 0,13,14
 -12 332 -12 332 -7 340 c 0,0,1
EndSplineSet
Validated: 1
EndChar

StartChar: period
Encoding: 46 46 9
Width: 167
GlyphClass: 2
Flags: W
LayerCount: 2
Fore
SplineSet
35 20 m 0,0,1
 62 47 62 47 74 57 c 128,-1,2
 86 67 86 67 94 67 c 0,3,4
 106 67 106 67 126 39 c 0,5,6
 143 16 143 16 143 -9 c 0,7,8
 143 -41 143 -41 118.5 -63.5 c 128,-1,9
 94 -86 94 -86 56 -86 c 0,10,11
 -11 -86 -11 -86 -11 -53 c 0,12,13
 -11 -26 -11 -26 35 20 c 0,0,1
EndSplineSet
Validated: 1
EndChar

StartChar: zero
Encoding: 48 48 10
Width: 517
GlyphClass: 2
Flags: W
LayerCount: 2
Fore
SplineSet
151 539 m 0,0,1
 211 602 211 602 269 602 c 0,2,3
 316 602 316 602 369 561 c 0,4,5
 493 460 493 460 493 267 c 0,6,7
 493 191 493 191 477.5 158 c 128,-1,8
 462 125 462 125 395 54 c 0,9,10
 341 -2 341 -2 306 -25 c 128,-1,11
 271 -48 271 -48 236 -48 c 0,12,13
 166 -48 166 -48 104.5 -11 c 128,-1,14
 43 26 43 26 17 83 c 0,15,16
 0 122 0 122 0 151 c 0,17,18
 0 190 0 190 38 313 c 0,19,20
 62 383 62 383 94 447.5 c 128,-1,21
 126 512 126 512 151 539 c 0,0,1
312 500 m 0,22,23
 288 515 288 515 271 515 c 0,24,25
 241 515 241 515 206 470 c 0,26,27
 173 429 173 429 139 325.5 c 128,-1,28
 105 222 105 222 105 165 c 0,29,30
 105 155 105 155 106 148 c 0,31,32
 112 106 112 106 136.5 85 c 128,-1,33
 161 64 161 64 198 64 c 0,34,35
 260 64 260 64 320.5 115.5 c 128,-1,36
 381 167 381 167 397 246 c 0,37,38
 399 257 399 257 399 272 c 0,39,40
 399 331 399 331 371.5 405.5 c 128,-1,41
 344 480 344 480 312 500 c 0,22,23
EndSplineSet
Validated: 1
EndChar

StartChar: one
Encoding: 49 49 11
Width: 177
GlyphClass: 2
Flags: W
LayerCount: 2
Fore
SplineSet
86 609 m 0,0,1
 99 617 99 617 108 617 c 0,2,3
 130 617 130 617 137 554 c 128,-1,4
 144 491 144 491 144 309 c 0,5,6
 144 126 144 126 137.5 68 c 128,-1,7
 131 10 131 10 110 2 c 0,8,9
 95 -3 95 -3 85 -3 c 0,10,11
 56 -3 56 -3 44.5 42.5 c 128,-1,12
 33 88 33 88 33 204 c 0,13,14
 33 234 33 234 33 272 c 0,15,16
 37 458 37 458 47 523.5 c 128,-1,17
 57 589 57 589 86 609 c 0,0,1
EndSplineSet
Validated: 1
EndChar

StartChar: two
Encoding: 50 50 12
Width: 439
GlyphClass: 2
Flags: W
LayerCount: 2
Fore
SplineSet
70 570 m 0,0,1
 143 626 143 626 231 626 c 0,2,3
 307 626 307 626 360.5 582.5 c 128,-1,4
 414 539 414 539 414 467 c 0,5,6
 414 411 414 411 359.5 294 c 128,-1,7
 305 177 305 177 260 135 c 0,8,9
 222 100 222 100 222 83 c 0,10,11
 222 61 222 61 303 61 c 0,12,13
 353 61 353 61 382.5 49.5 c 128,-1,14
 412 38 412 38 412 19 c 0,15,16
 412 7 412 7 399 -7 c 0,17,18
 389 -16 389 -16 331.5 -25 c 128,-1,19
 274 -34 274 -34 201 -37 c 0,20,21
 122 -41 122 -41 90 -41 c 0,22,23
 49 -41 49 -41 36 -34.5 c 128,-1,24
 23 -28 23 -28 23 -11 c 0,25,26
 23 4 23 4 44 35 c 128,-1,27
 65 66 65 66 94 93 c 0,28,29
 164 162 164 162 203.5 213.5 c 128,-1,30
 243 265 243 265 284 341 c 0,31,32
 324 422 324 422 324 459 c 0,33,34
 324 480 324 480 312 494.5 c 128,-1,35
 300 509 300 509 275 522 c 0,36,37
 249 533 249 533 229 533 c 0,38,39
 198 533 198 533 134 500 c 0,40,41
 72 468 72 468 52 468 c 0,42,43
 36 468 36 468 23 485 c 0,44,45
 15 494 15 494 15 503 c 0,46,47
 15 525 15 525 70 570 c 0,0,1
EndSplineSet
Validated: 1
EndChar

StartChar: three
Encoding: 51 51 13
Width: 393
GlyphClass: 2
Flags: W
LayerCount: 2
Fore
SplineSet
24 562 m 0,0,1
 24 541 24 541 54 522.5 c 128,-1,2
 84 504 84 504 119 504 c 0,3,4
 123 504 123 504 128 504 c 0,5,6
 131 505 131 505 135 505 c 0,7,8
 167 505 167 505 190 488 c 0,9,10
 203 480 203 480 203 471 c 0,11,12
 203 454 203 454 140 398 c 0,13,14
 68 337 68 337 68 300 c 0,15,16
 68 261 68 261 144 261 c 0,17,18
 158 261 158 261 174 262 c 0,19,20
 197 264 197 264 211 264 c 0,21,22
 242 264 242 264 254 256.5 c 128,-1,23
 266 249 266 249 269 229 c 0,24,25
 270 224 270 224 270 217 c 0,26,27
 270 179 270 179 251 140 c 0,28,29
 235 111 235 111 217.5 102 c 128,-1,30
 200 93 200 93 157 93 c 0,31,32
 147 93 147 93 134 94 c 0,33,34
 107 95 107 95 89 95 c 0,35,36
 57 95 57 95 43.5 89.5 c 128,-1,37
 30 84 30 84 30 71 c 128,-1,38
 30 58 30 58 44 31 c 0,39,40
 56 8 56 8 86 -4 c 128,-1,41
 116 -16 116 -16 153 -16 c 0,42,43
 193 -16 193 -16 229.5 -2.5 c 128,-1,44
 266 11 266 11 288 35 c 0,45,46
 377 133 377 133 377 213 c 0,47,48
 377 278 377 278 315 325 c 256,49,50
 253 372 253 372 253 381 c 0,51,52
 253 386 253 386 268.5 408 c 128,-1,53
 284 430 284 430 305 454 c 0,54,55
 343 498 343 498 343 523 c 0,56,57
 343 536 343 536 334 552 c 0,58,59
 321 577 321 577 290.5 584.5 c 128,-1,60
 260 592 260 592 169 592 c 0,61,62
 86 592 86 592 54.5 586 c 128,-1,63
 23 580 23 580 24 562 c 0,0,1
EndSplineSet
Validated: 41
EndChar

StartChar: four
Encoding: 52 52 14
Width: 384
GlyphClass: 2
Flags: W
LayerCount: 2
Fore
SplineSet
36 628 m 0,0,1
 47 644 47 644 63 644 c 0,2,3
 82 644 82 644 96 624 c 0,4,5
 106 609 106 609 106 508 c 0,6,7
 106 489 106 489 105 471 c 2,8,-1
 102 338 l 1,9,-1
 169 338 l 2,10,11
 189 338 189 338 199.5 338.5 c 128,-1,12
 210 339 210 339 221 345 c 128,-1,13
 232 351 232 351 237 358.5 c 128,-1,14
 242 366 242 366 248 385 c 128,-1,15
 254 404 254 404 257.5 425 c 128,-1,16
 261 446 261 446 267 486 c 0,17,18
 281 570 281 570 294 576 c 0,19,20
 302 581 302 581 308 581 c 0,21,22
 329 581 329 581 337.5 531 c 128,-1,23
 346 481 346 481 348 367 c 0,24,25
 348 182 348 182 355 117 c 0,26,27
 357 101 357 101 357 91 c 0,28,29
 357 73 357 73 350.5 66 c 128,-1,30
 344 59 344 59 326 59 c 0,31,32
 304 59 304 59 292 78.5 c 128,-1,33
 280 98 280 98 267 155 c 2,34,-1
 248 252 l 1,35,-1
 159 252 l 2,36,37
 70 252 70 252 40 277 c 128,-1,38
 10 302 10 302 10 383 c 0,39,40
 10 413 10 413 13 459 c 0,41,42
 27 610 27 610 36 628 c 0,0,1
EndSplineSet
Validated: 1
EndChar

StartChar: five
Encoding: 53 53 15
Width: 471
GlyphClass: 2
Flags: W
LayerCount: 2
Fore
SplineSet
78 640 m 0,0,1
 88 645 88 645 111 645 c 0,2,3
 129 645 129 645 145 643 c 0,4,5
 183 632 183 632 318 632 c 0,6,7
 393 632 393 632 420 626 c 128,-1,8
 447 620 447 620 447 601 c 0,9,10
 447 581 447 581 411.5 564.5 c 128,-1,11
 376 548 376 548 335 548 c 0,12,13
 327 548 327 548 320 549 c 0,14,15
 306 552 306 552 270 552 c 0,16,17
 247 552 247 552 224 551 c 0,18,19
 177 549 177 549 166 538 c 128,-1,20
 155 527 155 527 155 480 c 0,21,22
 155 441 155 441 160 429 c 128,-1,23
 165 417 165 417 184 417 c 0,24,25
 194 417 194 417 216 420 c 0,26,27
 224 421 224 421 232 421 c 0,28,29
 288 421 288 421 344.5 380 c 128,-1,30
 401 339 401 339 424 281 c 0,31,32
 438 248 438 248 438 229 c 0,33,34
 438 202 438 202 401 147 c 0,35,36
 367 95 367 95 288.5 41 c 128,-1,37
 210 -13 210 -13 168 -13 c 0,38,39
 135 -13 135 -13 82 16 c 128,-1,40
 29 45 29 45 20 68 c 0,41,42
 16 80 16 80 16 90 c 0,43,44
 16 107 16 107 27 117.5 c 128,-1,45
 38 128 38 128 55 128 c 0,46,47
 74 128 74 128 93 116 c 0,48,49
 132 93 132 93 166 93 c 0,50,51
 217 93 217 93 278 145 c 256,52,53
 339 197 339 197 339 240 c 0,54,55
 339 279 339 279 288 314 c 0,56,57
 252 337 252 337 233 337 c 0,58,59
 218 337 218 337 199 324 c 0,60,61
 147 286 147 286 123 286 c 0,62,63
 103 286 103 286 82 312 c 0,64,65
 68 331 68 331 59.5 384 c 128,-1,66
 51 437 51 437 51 498 c 0,67,68
 51 554 51 554 58 594.5 c 128,-1,69
 65 635 65 635 78 640 c 0,0,1
EndSplineSet
Validated: 1
EndChar

StartChar: six
Encoding: 54 54 16
Width: 405
GlyphClass: 2
Flags: W
LayerCount: 2
Fore
SplineSet
152 580 m 0,0,1
 198 612 198 612 241 612 c 0,2,3
 264 612 264 612 277.5 601 c 128,-1,4
 291 590 291 590 291 570 c 0,5,6
 291 553 291 553 283 540.5 c 128,-1,7
 275 528 275 528 264 528 c 0,8,9
 238 528 238 528 195 480 c 128,-1,10
 152 432 152 432 129 374 c 0,11,12
 112 336 112 336 112 328 c 128,-1,13
 112 320 112 320 123 320 c 0,14,15
 131 320 131 320 167 328 c 0,16,17
 183 331 183 331 199 331 c 0,18,19
 253 331 253 331 301 303 c 128,-1,20
 349 275 349 275 373 229 c 0,21,22
 390 198 390 198 390 182 c 0,23,24
 390 168 390 168 380.5 151.5 c 128,-1,25
 371 135 371 135 346 102 c 0,26,27
 313 59 313 59 287.5 44 c 128,-1,28
 262 29 262 29 223 29 c 0,29,30
 179 29 179 29 126 59 c 128,-1,31
 73 89 73 89 36.5 132.5 c 128,-1,32
 0 176 0 176 0 212 c 0,33,34
 0 295 0 295 52 420.5 c 128,-1,35
 104 546 104 546 152 580 c 0,0,1
258 224 m 1,36,37
 230 256 230 256 223 256 c 0,38,39
 220 256 220 256 163 233 c 0,40,41
 107 214 107 214 107 186 c 0,42,43
 107 160 107 160 158 137 c 0,44,45
 188 122 188 122 211 122 c 0,46,47
 231 122 231 122 252 133 c 0,48,49
 289 154 289 154 289 175 c 0,50,51
 289 195 289 195 258 224 c 1,36,37
EndSplineSet
Validated: 1
EndChar

StartChar: seven
Encoding: 55 55 17
Width: 388
GlyphClass: 2
Flags: W
LayerCount: 2
Fore
SplineSet
10 534 m 0,0,1
 8 547 8 547 8 553 c 0,2,3
 8 569 8 569 22.5 574.5 c 128,-1,4
 37 580 37 580 82 580 c 0,5,6
 110 580 110 580 184 578 c 0,7,8
 229 576 229 576 255 574.5 c 128,-1,9
 281 573 281 573 304 570.5 c 128,-1,10
 327 568 327 568 337 565 c 128,-1,11
 347 562 347 562 355.5 556 c 128,-1,12
 364 550 364 550 366.5 543.5 c 128,-1,13
 369 537 369 537 370 525 c 0,14,15
 371 521 371 521 371 516 c 0,16,17
 371 495 371 495 360.5 462 c 128,-1,18
 350 429 350 429 333 399 c 0,19,20
 314 368 314 368 301 335 c 128,-1,21
 288 302 288 302 288 289 c 256,22,23
 288 276 288 276 275.5 245 c 128,-1,24
 263 214 263 214 247 184 c 0,25,26
 229 154 229 154 214.5 117 c 128,-1,27
 200 80 200 80 197 58 c 0,28,29
 190 7 190 7 142 0 c 0,30,31
 137 -1 137 -1 132 -1 c 0,32,33
 92 -1 92 -1 92 48 c 0,34,35
 92 100 92 100 138 195 c 0,36,37
 192 301 192 301 208 343.5 c 128,-1,38
 224 386 224 386 227 430 c 0,39,40
 229 444 229 444 229 452 c 0,41,42
 229 474 229 474 210.5 479 c 128,-1,43
 192 484 192 484 125 484 c 0,44,45
 74 484 74 484 52 488 c 128,-1,46
 30 492 30 492 21.5 501.5 c 128,-1,47
 13 511 13 511 10 534 c 0,0,1
EndSplineSet
Validated: 1
EndChar

StartChar: eight
Encoding: 56 56 18
Width: 438
GlyphClass: 2
Flags: W
LayerCount: 2
Fore
SplineSet
88 550 m 0,0,1
 121 582 121 582 152.5 604 c 128,-1,2
 184 626 184 626 196 626 c 0,3,4
 228 626 228 626 283 600.5 c 128,-1,5
 338 575 338 575 338 561 c 0,6,7
 338 554 338 554 350.5 545.5 c 128,-1,8
 363 537 363 537 381 533 c 0,9,10
 402 528 402 528 414 504.5 c 128,-1,11
 426 481 426 481 426 451 c 0,12,13
 426 393 426 393 392 365 c 0,14,15
 367 344 367 344 367 302 c 0,16,17
 367 280 367 280 373 246 c 0,18,19
 376 222 376 222 376 199 c 0,20,21
 376 128 376 128 342.5 74.5 c 128,-1,22
 309 21 309 21 249 -4 c 0,23,24
 207 -23 207 -23 183.5 -23 c 128,-1,25
 160 -23 160 -23 123 -2 c 0,26,27
 91 15 91 15 74 50 c 128,-1,28
 57 85 57 85 57 126 c 0,29,30
 57 180 57 180 86 224 c 0,31,32
 118 273 118 273 118 287 c 0,33,34
 118 300 118 300 88 300 c 0,35,36
 63 300 63 300 37.5 348 c 128,-1,37
 12 396 12 396 12 441 c 0,38,39
 12 454 12 454 34 485 c 128,-1,40
 56 516 56 516 88 550 c 0,0,1
301 487 m 0,41,42
 266 513 266 513 227 513 c 0,43,44
 182 513 182 513 151 481 c 128,-1,45
 120 449 120 449 120 398 c 0,46,47
 120 382 120 382 140.5 373.5 c 128,-1,48
 161 365 161 365 192 365 c 0,49,50
 224 365 224 365 255 374 c 128,-1,51
 286 383 286 383 303 400 c 0,52,53
 335 432 335 432 335 446 c 0,54,55
 335 461 335 461 301 487 c 0,41,42
283 196 m 0,56,57
 287 215 287 215 287 229 c 0,58,59
 287 267 287 267 263 267 c 0,60,61
 242 267 242 267 209 239 c 0,62,63
 186 220 186 220 171.5 187.5 c 128,-1,64
 157 155 157 155 157 127 c 0,65,66
 157 97 157 97 175 89 c 0,67,68
 180 87 180 87 186 87 c 0,69,70
 215 87 215 87 245.5 121 c 128,-1,71
 276 155 276 155 283 196 c 0,56,57
EndSplineSet
Validated: 1
EndChar

StartChar: nine
Encoding: 57 57 19
Width: 392
GlyphClass: 2
Flags: W
LayerCount: 2
Fore
SplineSet
101 575 m 0,0,1
 135 594 135 594 172 594 c 0,2,3
 248 594 248 594 325 521 c 0,4,5
 383 465 383 465 383 418 c 0,6,7
 383 394 383 394 366 373 c 0,8,9
 347 351 347 351 323 268.5 c 128,-1,10
 299 186 299 186 285 100 c 0,11,12
 278 37 278 37 260 0.5 c 128,-1,13
 242 -36 242 -36 222 -36 c 0,14,15
 205 -36 205 -36 190 -9 c 0,16,17
 179 11 179 11 179 39 c 0,18,19
 179 91 179 91 222 232 c 0,20,21
 229 258 229 258 229 265 c 128,-1,22
 229 272 229 272 224 272 c 0,23,24
 218 272 218 272 188 256 c 0,25,26
 161 242 161 242 144 242 c 0,27,28
 122 242 122 242 83 271 c 256,29,30
 44 300 44 300 23.5 339.5 c 128,-1,31
 3 379 3 379 3 421 c 0,32,33
 3 468 3 468 28.5 509.5 c 128,-1,34
 54 551 54 551 101 575 c 0,0,1
270 434 m 0,35,36
 260 462 260 462 229.5 481 c 128,-1,37
 199 500 199 500 169 500 c 0,38,39
 152 500 152 500 140 493 c 0,40,41
 122 483 122 483 112 461 c 128,-1,42
 102 439 102 439 102 414 c 0,43,44
 102 364 102 364 133 352 c 0,45,46
 139 349 139 349 147 349 c 0,47,48
 181 349 181 349 226 378 c 128,-1,49
 271 407 271 407 271 429 c 0,50,51
 271 432 271 432 270 434 c 0,35,36
EndSplineSet
Validated: 1
EndChar

StartChar: colon
Encoding: 58 58 20
Width: 187
GlyphClass: 2
Flags: W
LayerCount: 2
Fore
SplineSet
55 430 m 0,0,1
 82 456 82 456 94 466 c 128,-1,2
 106 476 106 476 114 476 c 0,3,4
 126 476 126 476 146 448 c 0,5,6
 163 426 163 426 163 400 c 0,7,8
 163 368 163 368 138.5 345.5 c 128,-1,9
 114 323 114 323 76 323 c 0,10,11
 9 323 9 323 9 356 c 0,12,13
 9 383 9 383 55 430 c 0,0,1
55 111 m 0,14,15
 82 138 82 138 94 148 c 128,-1,16
 106 158 106 158 114 158 c 0,17,18
 126 158 126 158 146 130 c 0,19,20
 163 107 163 107 163 82 c 0,21,22
 163 50 163 50 138.5 27.5 c 128,-1,23
 114 5 114 5 76 5 c 0,24,25
 9 5 9 5 9 38 c 0,26,27
 9 65 9 65 55 111 c 0,14,15
EndSplineSet
Validated: 1
EndChar

StartChar: semicolon
Encoding: 59 59 21
Width: 229
GlyphClass: 2
Flags: W
LayerCount: 2
Fore
SplineSet
106 430 m 0,0,1
 133 456 133 456 145 466 c 128,-1,2
 157 476 157 476 166 476 c 0,3,4
 177 476 177 476 197 448 c 0,5,6
 214 426 214 426 214 400 c 0,7,8
 214 368 214 368 189.5 345.5 c 128,-1,9
 165 323 165 323 127 323 c 0,10,11
 60 323 60 323 60 356 c 0,12,13
 60 383 60 383 106 430 c 0,0,1
93 86 m 0,14,15
 93 124 93 124 103.5 144.5 c 128,-1,16
 114 165 114 165 131 165 c 0,17,18
 158 165 158 165 183 118 c 0,19,20
 197 92 197 92 197 69 c 0,21,22
 197 43 197 43 179 5 c 0,23,24
 167 -24 167 -24 153.5 -44 c 128,-1,25
 140 -64 140 -64 133 -64 c 0,26,27
 125 -64 125 -64 120 -73 c 128,-1,28
 115 -82 115 -82 115 -95 c 0,29,30
 115 -124 115 -124 88 -148 c 128,-1,31
 61 -172 61 -172 32 -172 c 0,32,33
 22 -172 22 -172 13 -168 c 0,34,35
 -11 -160 -11 -160 -11 -147 c 256,36,37
 -11 -134 -11 -134 18 -82 c 0,38,39
 61 -3 61 -3 77 0 c 0,40,41
 83 3 83 3 88 28.5 c 128,-1,42
 93 54 93 54 93 86 c 0,14,15
EndSplineSet
Validated: 1
EndChar

StartChar: equal
Encoding: 61 61 22
Width: 402
GlyphClass: 2
Flags: W
LayerCount: 2
Fore
SplineSet
24 427 m 0,0,1
 37 452 37 452 71 459.5 c 128,-1,2
 105 467 105 467 208 467 c 0,3,4
 274 467 274 467 326 463 c 128,-1,5
 378 459 378 459 383 454 c 0,6,7
 386 450 386 450 386 440 c 0,8,9
 386 422 386 422 374 402 c 0,10,11
 362 377 362 377 328 369.5 c 128,-1,12
 294 362 294 362 191 362 c 0,13,14
 125 362 125 362 73 366 c 128,-1,15
 21 370 21 370 16 375 c 0,16,17
 13 380 13 380 13 389 c 0,18,19
 13 408 13 408 24 427 c 0,0,1
24 177 m 0,20,21
 37 202 37 202 71 209.5 c 128,-1,22
 105 217 105 217 208 217 c 0,23,24
 274 217 274 217 326 213 c 128,-1,25
 378 209 378 209 383 204 c 0,26,27
 386 200 386 200 386 190 c 0,28,29
 386 172 386 172 374 152 c 0,30,31
 362 127 362 127 328 119.5 c 128,-1,32
 294 112 294 112 191 112 c 0,33,34
 125 112 125 112 73 116 c 128,-1,35
 21 120 21 120 16 125 c 0,36,37
 13 130 13 130 13 139 c 0,38,39
 13 158 13 158 24 177 c 0,20,21
EndSplineSet
Validated: 1
EndChar

StartChar: question
Encoding: 63 63 23
Width: 350
GlyphClass: 2
Flags: W
LayerCount: 2
Fore
SplineSet
112 644 m 0,0,1
 173 680 173 680 186 680 c 0,2,3
 222 680 222 680 262.5 646 c 128,-1,4
 303 612 303 612 320 570 c 0,5,6
 333 531 333 531 333 511 c 0,7,8
 333 487 333 487 312 452 c 0,9,10
 275 399 275 399 230 370 c 0,11,12
 202 352 202 352 192 329.5 c 128,-1,13
 182 307 182 307 182 260 c 0,14,15
 182 220 182 220 174.5 199 c 128,-1,16
 167 178 167 178 155 178 c 0,17,18
 142 178 142 178 128.5 203.5 c 128,-1,19
 115 229 115 229 106 274 c 0,20,21
 96 318 96 318 96 352 c 0,22,23
 96 440 96 440 158 440 c 0,24,25
 195 440 195 440 218.5 466.5 c 128,-1,26
 242 493 242 493 242 534 c 0,27,28
 242 557 242 557 228.5 569 c 128,-1,29
 215 581 215 581 193 581 c 0,30,31
 149 581 149 581 112 540 c 0,32,33
 76 501 76 501 45 501 c 0,34,35
 24 501 24 501 12 520 c 0,36,37
 9 526 9 526 9 534 c 0,38,39
 9 555 9 555 36 584 c 128,-1,40
 63 613 63 613 112 644 c 0,0,1
102 92 m 0,41,42
 123 115 123 115 150 115 c 0,43,44
 168 115 168 115 181.5 103.5 c 128,-1,45
 195 92 195 92 198 72 c 0,46,47
 199 67 199 67 199 62 c 0,48,49
 199 36 199 36 178 18.5 c 128,-1,50
 157 1 157 1 133 1 c 0,51,52
 101 1 101 1 90 30 c 0,53,54
 86 37 86 37 86 47 c 0,55,56
 86 72 86 72 102 92 c 0,41,42
EndSplineSet
Validated: 1
EndChar

StartChar: A
Encoding: 65 65 24
Width: 454
GlyphClass: 2
Flags: W
LayerCount: 2
Fore
SplineSet
128 527 m 0,0,1
 145 554 145 554 166.5 574.5 c 128,-1,2
 188 595 188 595 200 595 c 0,3,4
 246 595 246 595 301 496 c 128,-1,5
 356 397 356 397 393 268.5 c 128,-1,6
 430 140 430 140 430 53 c 0,7,8
 430 -28 430 -28 394 -36 c 0,9,10
 389 -37 389 -37 386 -37 c 0,11,12
 368 -37 368 -37 358.5 -19.5 c 128,-1,13
 349 -2 349 -2 341 43 c 0,14,15
 337 65 337 65 334 82.5 c 128,-1,16
 331 100 331 100 328.5 115 c 128,-1,17
 326 130 326 130 323 141 c 128,-1,18
 320 152 320 152 317 161 c 128,-1,19
 314 170 314 170 310.5 176 c 128,-1,20
 307 182 307 182 303 185.5 c 128,-1,21
 299 189 299 189 294 190.5 c 128,-1,22
 289 192 289 192 282 192 c 0,23,24
 268 192 268 192 210 175 c 0,25,26
 114 148 114 148 107 105 c 0,27,28
 94 13 94 13 80.5 -14 c 128,-1,29
 67 -41 67 -41 35 -41 c 0,30,31
 -11 -41 -11 -41 -11 23 c 0,32,33
 -11 65 -11 65 10 132 c 256,34,35
 31 199 31 199 60 327 c 0,36,37
 69 380 69 380 89.5 438.5 c 128,-1,38
 110 497 110 497 128 527 c 0,0,1
273 373 m 0,39,40
 262 417 262 417 246.5 440.5 c 128,-1,41
 231 464 231 464 215 464 c 0,42,43
 192 464 192 464 175 420 c 0,44,45
 133 311 133 311 133 281 c 0,46,47
 133 266 133 266 140.5 260.5 c 128,-1,48
 148 255 148 255 164 255 c 0,49,50
 214 255 214 255 245 281 c 128,-1,51
 276 307 276 307 276 348 c 0,52,53
 276 360 276 360 273 373 c 0,39,40
EndSplineSet
Validated: 1
EndChar

StartChar: B
Encoding: 66 66 25
Width: 470
GlyphClass: 2
Flags: W
LayerCount: 2
Fore
SplineSet
52 625 m 0,0,1
 62 635 62 635 102 635 c 0,2,3
 165 635 165 635 254 613 c 128,-1,4
 343 591 343 591 372 565 c 0,5,6
 420 520 420 520 420 485 c 0,7,8
 420 453 420 453 384 397 c 0,9,10
 357 357 357 357 357 343 c 0,11,12
 357 330 357 330 379 313 c 0,13,14
 413 289 413 289 433.5 251.5 c 128,-1,15
 454 214 454 214 454 181 c 0,16,17
 454 162 454 162 447 148 c 0,18,19
 421 95 421 95 397 41 c 0,20,21
 375 -7 375 -7 331 -32 c 128,-1,22
 287 -57 287 -57 228 -57 c 0,23,24
 202 -57 202 -57 175 -52 c 0,25,26
 147 -47 147 -47 130.5 -43 c 128,-1,27
 114 -39 114 -39 97.5 -29 c 128,-1,28
 81 -19 81 -19 72.5 -10.5 c 128,-1,29
 64 -2 64 -2 56 20.5 c 128,-1,30
 48 43 48 43 45 64 c 128,-1,31
 42 85 42 85 39.5 127 c 128,-1,32
 37 169 37 169 36.5 209 c 128,-1,33
 36 249 36 249 36 318 c 0,34,35
 36 440 36 440 40.5 529.5 c 128,-1,36
 45 619 45 619 52 625 c 0,0,1
318 500 m 0,37,38
 307 515 307 515 280.5 528.5 c 128,-1,39
 254 542 254 542 227 545 c 0,40,41
 208 547 208 547 199 547 c 0,42,43
 171 547 171 547 160 525 c 128,-1,44
 149 503 149 503 131 418 c 0,45,46
 103 284 103 284 103 192 c 0,47,48
 103 75 103 75 147 50 c 0,49,50
 192 27 192 27 232 27 c 0,51,52
 286 27 286 27 319.5 67.5 c 128,-1,53
 353 108 353 108 354 179 c 0,54,55
 354 200 354 200 352.5 212.5 c 128,-1,56
 351 225 351 225 344.5 236.5 c 128,-1,57
 338 248 338 248 329.5 253.5 c 128,-1,58
 321 259 321 259 301.5 265 c 128,-1,59
 282 271 282 271 259 274 c 128,-1,60
 236 277 236 277 197 282 c 0,61,62
 167 285 167 285 151 295 c 128,-1,63
 135 305 135 305 135 317 c 256,64,65
 135 329 135 329 149.5 339.5 c 128,-1,66
 164 350 164 350 190 356 c 0,67,68
 248 369 248 369 286.5 403.5 c 128,-1,69
 325 438 325 438 325 473 c 0,70,71
 325 487 325 487 318 500 c 0,37,38
EndSplineSet
Validated: 1
EndChar

StartChar: C
Encoding: 67 67 26
Width: 469
GlyphClass: 2
Flags: W
LayerCount: 2
Fore
SplineSet
202 573 m 0,0,1
 241 615 241 615 292 615 c 0,2,3
 337 615 337 615 369.5 582.5 c 128,-1,4
 402 550 402 550 402 499 c 0,5,6
 402 472 402 472 386.5 456.5 c 128,-1,7
 371 441 371 441 350 441 c 0,8,9
 333 441 333 441 318.5 451.5 c 128,-1,10
 304 462 304 462 297 482 c 0,11,12
 286 509 286 509 276 509 c 0,13,14
 268 509 268 509 249 487 c 0,15,16
 191 429 191 429 145 313 c 128,-1,17
 99 197 99 197 99 120 c 0,18,19
 99 87 99 87 109 71 c 0,20,21
 151 12 151 12 215 12 c 0,22,23
 260 12 260 12 318 40 c 0,24,25
 378 69 378 69 415 69 c 0,26,27
 445 69 445 69 445 49 c 0,28,29
 445 21 445 21 390 -24 c 0,30,31
 320 -80 320 -80 240 -80 c 0,32,33
 156 -80 156 -80 76 -19 c 0,34,35
 29 17 29 17 13 45.5 c 128,-1,36
 -3 74 -3 74 -3 123 c 0,37,38
 -3 157 -3 157 3.5 193 c 128,-1,39
 10 229 10 229 19 247 c 0,40,41
 25 259 25 259 53.5 317 c 128,-1,42
 82 375 82 375 95 401 c 0,43,44
 116 447 116 447 148 498 c 128,-1,45
 180 549 180 549 202 573 c 0,0,1
EndSplineSet
Validated: 1
EndChar

StartChar: D
Encoding: 68 68 27
Width: 478
GlyphClass: 2
Flags: W
LayerCount: 2
Fore
SplineSet
54 600 m 0,0,1
 59 607 59 607 93.5 612.5 c 128,-1,2
 128 618 128 618 170 618 c 0,3,4
 269 618 269 618 344.5 566 c 128,-1,5
 420 514 420 514 438 432 c 0,6,7
 454 360 454 360 454 291 c 0,8,9
 454 129 454 129 374 24 c 128,-1,10
 294 -81 294 -81 163 -84 c 0,11,12
 155 -84 155 -84 148 -84 c 0,13,14
 100 -84 100 -84 77 -65 c 128,-1,15
 54 -46 54 -46 44.5 6.5 c 128,-1,16
 35 59 35 59 35 168 c 0,17,18
 35 214 35 214 36 284 c 0,19,20
 44 587 44 587 54 600 c 0,0,1
259 514 m 0,21,22
 209 527 209 527 188.5 527 c 128,-1,23
 168 527 168 527 138.5 374.5 c 128,-1,24
 109 222 109 222 109 118 c 0,25,26
 109 93 109 93 109 80.5 c 128,-1,27
 109 68 109 68 112.5 55.5 c 128,-1,28
 116 43 116 43 119 39 c 128,-1,29
 122 35 122 35 132.5 31.5 c 128,-1,30
 143 28 143 28 152.5 27.5 c 128,-1,31
 162 27 162 27 184 27 c 0,32,33
 273 27 273 27 316 84.5 c 128,-1,34
 359 142 359 142 359 261 c 0,35,36
 359 487 359 487 259 514 c 0,21,22
EndSplineSet
Validated: 1
EndChar

StartChar: E
Encoding: 69 69 28
Width: 467
GlyphClass: 2
Flags: W
LayerCount: 2
Fore
SplineSet
328 593 m 0,0,1
 343 603 343 603 362 603 c 0,2,3
 392 603 392 603 418 584 c 128,-1,4
 444 565 444 565 444 541 c 0,5,6
 444 509 444 509 283 495 c 0,7,8
 184 485 184 485 156.5 476.5 c 128,-1,9
 129 468 129 468 129 445 c 0,10,11
 129 439 129 439 131 430 c 0,12,13
 134 399 134 399 152.5 389.5 c 128,-1,14
 171 380 171 380 228 380 c 0,15,16
 272 380 272 380 296 370.5 c 128,-1,17
 320 361 320 361 320 346 c 0,18,19
 320 333 320 333 300 317.5 c 128,-1,20
 280 302 280 302 242 289 c 0,21,22
 191 272 191 272 162.5 237 c 128,-1,23
 134 202 134 202 134 158 c 0,24,25
 134 130 134 130 147 102 c 0,26,27
 157 79 157 79 169 70 c 128,-1,28
 181 61 181 61 204 61 c 0,29,30
 220 61 220 61 249 66 c 0,31,32
 289 72 289 72 318 72 c 0,33,34
 386 72 386 72 386 36 c 0,35,36
 386 23 386 23 376 5 c 0,37,38
 361 -23 361 -23 332 -32 c 128,-1,39
 303 -41 303 -41 228 -41 c 0,40,41
 227 -41 227 -41 223 -41 c 128,-1,42
 219 -41 219 -41 217 -41 c 0,43,44
 192 -41 192 -41 178.5 -41 c 128,-1,45
 165 -41 165 -41 146.5 -40 c 128,-1,46
 128 -39 128 -39 119.5 -37.5 c 128,-1,47
 111 -36 111 -36 99 -33 c 128,-1,48
 87 -30 87 -30 82 -26.5 c 128,-1,49
 77 -23 77 -23 70 -16.5 c 128,-1,50
 63 -10 63 -10 61 -2 c 128,-1,51
 59 6 59 6 56 17 c 128,-1,52
 53 28 53 28 52.5 41 c 128,-1,53
 52 54 52 54 52 71 c 0,54,55
 52 94 52 94 56 177 c 0,56,57
 57 208 57 208 57 237 c 0,58,59
 57 381 57 381 35 436 c 0,60,61
 20 474 20 474 20 499 c 0,62,63
 20 538 20 538 58 555.5 c 128,-1,64
 96 573 96 573 181 573 c 0,65,66
 229 573 229 573 273 579 c 128,-1,67
 317 585 317 585 328 593 c 0,0,1
EndSplineSet
Validated: 1
EndChar

StartChar: F
Encoding: 70 70 29
Width: 472
GlyphClass: 2
Flags: W
LayerCount: 2
Fore
SplineSet
71 627 m 0,0,1
 86 646 86 646 113.5 653.5 c 128,-1,2
 141 661 141 661 201 661 c 0,3,4
 230 661 230 661 275 659 c 0,5,6
 326 657 326 657 353 655 c 128,-1,7
 380 653 380 653 402 650 c 128,-1,8
 424 647 424 647 432.5 641 c 128,-1,9
 441 635 441 635 444.5 627.5 c 128,-1,10
 448 620 448 620 448 607 c 128,-1,11
 448 594 448 594 444.5 586.5 c 128,-1,12
 441 579 441 579 433.5 573 c 128,-1,13
 426 567 426 567 406.5 564 c 128,-1,14
 387 561 387 561 363.5 559 c 128,-1,15
 340 557 340 557 296 555 c 2,16,-1
 141 548 l 1,17,-1
 141 439 l 1,18,-1
 141 327 l 1,19,-1
 243 341 l 2,20,21
 283 345 283 345 301 345 c 0,22,23
 329 345 329 345 337.5 336.5 c 128,-1,24
 346 328 346 328 346 305 c 0,25,26
 346 265 346 265 313 248.5 c 128,-1,27
 280 232 280 232 205 232 c 2,28,-1
 134 232 l 1,29,-1
 148 84 l 2,30,31
 154 23 154 23 154 -8 c 128,-1,32
 154 -39 154 -39 148.5 -51.5 c 128,-1,33
 143 -64 143 -64 130 -64 c 0,34,35
 116 -64 116 -64 97 -41.5 c 128,-1,36
 78 -19 78 -19 64 11 c 0,37,38
 32 79 32 79 32 310 c 0,39,40
 32 424 32 424 42.5 515 c 128,-1,41
 53 606 53 606 71 627 c 0,0,1
EndSplineSet
Validated: 1
EndChar

StartChar: G
Encoding: 71 71 30
Width: 586
GlyphClass: 2
Flags: W
LayerCount: 2
Fore
SplineSet
140 556 m 0,0,1
 169 596 169 596 198.5 606.5 c 128,-1,2
 228 617 228 617 315 617 c 0,3,4
 403 617 403 617 459.5 597 c 128,-1,5
 516 577 516 577 516 546 c 0,6,7
 516 536 516 536 510 526 c 0,8,9
 497 506 497 506 444 506 c 0,10,11
 421 506 421 506 390 510 c 0,12,13
 362 514 362 514 330 514 c 0,14,15
 266 514 266 514 235 504 c 0,16,17
 187 485 187 485 150 409.5 c 128,-1,18
 113 334 113 334 113 256 c 0,19,20
 113 213 113 213 132.5 158.5 c 128,-1,21
 152 104 152 104 180.5 65.5 c 128,-1,22
 209 27 209 27 231 27 c 0,23,24
 262 29 262 29 311.5 72 c 128,-1,25
 361 115 361 115 403 179 c 0,26,27
 451 247 451 247 451 272 c 0,28,29
 451 287 451 287 432 287 c 0,30,31
 422 287 422 287 408 283 c 0,32,33
 383 277 383 277 363 277 c 0,34,35
 337 277 337 277 322.5 287 c 128,-1,36
 308 297 308 297 308 314 c 0,37,38
 308 328 308 328 317 345 c 0,39,40
 330 370 330 370 355 380 c 128,-1,41
 380 390 380 390 428 390 c 0,42,43
 490 390 490 390 526 370 c 128,-1,44
 562 350 562 350 562 317 c 0,45,46
 562 297 562 297 548 274 c 0,47,48
 537 258 537 258 529 237.5 c 128,-1,49
 521 217 521 217 521 206 c 0,50,51
 521 196 521 196 493.5 155.5 c 128,-1,52
 466 115 466 115 428 70 c 0,53,54
 365 -5 365 -5 335 -23 c 128,-1,55
 305 -41 305 -41 244 -41 c 0,56,57
 190 -41 190 -41 160 -28 c 128,-1,58
 130 -15 130 -15 99 22 c 0,59,60
 77 48 77 48 61 77.5 c 128,-1,61
 45 107 45 107 45 122 c 0,62,63
 45 138 45 138 38.5 154 c 128,-1,64
 32 170 32 170 22 174 c 0,65,66
 -4 190 -4 190 -4 234 c 0,67,68
 -4 288 -4 288 34 373.5 c 128,-1,69
 72 459 72 459 140 556 c 0,0,1
EndSplineSet
Validated: 1
EndChar

StartChar: H
Encoding: 72 72 31
Width: 521
GlyphClass: 2
Flags: W
LayerCount: 2
Fore
SplineSet
46 441 m 0,0,1
 50 495 50 495 53 523.5 c 128,-1,2
 56 552 56 552 59.5 576.5 c 128,-1,3
 63 601 63 601 67.5 610.5 c 128,-1,4
 72 620 72 620 78 625 c 128,-1,5
 84 630 84 630 93 630 c 0,6,7
 98 630 98 630 106 629 c 0,8,9
 150 623 150 623 150 553 c 0,10,11
 150 508 150 508 131 441 c 2,12,-1
 115 383 l 1,13,-1
 242 383 l 1,14,-1
 369 383 l 1,15,-1
 373 452 l 2,16,17
 377 522 377 522 377 570 c 0,18,19
 378 597 378 597 394 613.5 c 128,-1,20
 410 630 410 630 429 630 c 0,21,22
 454 630 454 630 464 604 c 0,23,24
 467 597 467 597 467 578 c 0,25,26
 467 523 467 523 452 431 c 0,27,28
 427 296 427 296 427 236 c 0,29,30
 427 165 427 165 464 135 c 0,31,32
 497 108 497 108 497 76 c 0,33,34
 497 57 497 57 485 43 c 128,-1,35
 473 29 473 29 452 23 c 0,36,37
 446 21 446 21 439 21 c 0,38,39
 401 21 401 21 374.5 74 c 128,-1,40
 348 127 348 127 348 206 c 2,41,-1
 348 300 l 1,42,-1
 233 300 l 1,43,-1
 121 300 l 1,44,-1
 115 181 l 2,45,46
 110 103 110 103 101.5 81.5 c 128,-1,47
 93 60 93 60 67 60 c 0,48,49
 44 60 44 60 36 75 c 128,-1,50
 28 90 28 90 28 142 c 0,51,52
 28 201 28 201 46 441 c 0,0,1
EndSplineSet
Validated: 1
EndChar

StartChar: I
Encoding: 73 73 32
Width: 443
GlyphClass: 2
Flags: W
LayerCount: 2
Fore
SplineSet
33 570 m 0,0,1
 39 588 39 588 78.5 594 c 128,-1,2
 118 600 118 600 221 600 c 0,3,4
 399 600 399 600 411 588 c 0,5,6
 419 580 419 580 419 569 c 0,7,8
 419 546 419 546 387.5 523 c 128,-1,9
 356 500 356 500 319 500 c 2,10,-1
 255 500 l 1,11,-1
 249 330 l 1,12,-1
 243 160 l 1,13,-1
 303 160 l 2,14,15
 361 160 361 160 373 144 c 0,16,17
 378 135 378 135 378 127 c 0,18,19
 378 83 378 83 195 76 c 0,20,21
 132 74 132 74 106 74 c 0,22,23
 58 74 58 74 45.5 81.5 c 128,-1,24
 33 89 33 89 29 116 c 0,25,26
 27 127 27 127 27 133 c 0,27,28
 27 150 27 150 39 155 c 128,-1,29
 51 160 51 160 85 160 c 0,30,31
 143 160 143 160 164 208.5 c 128,-1,32
 185 257 185 257 185 392 c 2,33,-1
 185 522 l 1,34,-1
 117 510 l 2,35,36
 97 506 97 506 80 506 c 0,37,38
 27 506 27 506 27 544 c 0,39,40
 27 555 27 555 33 570 c 0,0,1
EndSplineSet
Validated: 1
EndChar

StartChar: J
Encoding: 74 74 33
Width: 395
GlyphClass: 2
Flags: W
LayerCount: 2
Fore
SplineSet
72 559 m 0,0,1
 78 564 78 564 125.5 568 c 128,-1,2
 173 572 173 572 231 572 c 0,3,4
 274 572 274 572 296.5 571 c 128,-1,5
 319 570 319 570 337 568 c 128,-1,6
 355 566 355 566 362 560 c 128,-1,7
 369 554 369 554 372 546.5 c 128,-1,8
 375 539 375 539 375 525 c 0,9,10
 375 504 375 504 362.5 487.5 c 128,-1,11
 350 471 350 471 331 466 c 0,12,13
 314 461 314 461 306 449 c 128,-1,14
 298 437 298 437 294 406 c 128,-1,15
 290 375 290 375 290 311 c 0,16,17
 290 289 290 289 291 259 c 0,18,19
 291 242 291 242 291 228 c 0,20,21
 291 157 291 157 287 112 c 128,-1,22
 283 67 283 67 274 35 c 128,-1,23
 265 3 265 3 246.5 -12.5 c 128,-1,24
 228 -28 228 -28 204 -34.5 c 128,-1,25
 180 -41 180 -41 141 -41 c 0,26,27
 67 -41 67 -41 27.5 -19.5 c 128,-1,28
 -12 2 -12 2 -12 43 c 0,29,30
 -12 57 -12 57 5 64.5 c 128,-1,31
 22 72 22 72 47 72 c 0,32,33
 91 72 91 72 122 52 c 0,34,35
 137 43 137 43 149 43 c 0,36,37
 213 43 213 43 216 284 c 0,38,39
 216 332 216 332 215.5 356.5 c 128,-1,40
 215 381 215 381 212.5 404.5 c 128,-1,41
 210 428 210 428 207.5 436 c 128,-1,42
 205 444 205 444 197.5 451 c 128,-1,43
 190 458 190 458 182.5 458.5 c 128,-1,44
 175 459 175 459 159 459 c 0,45,46
 126 459 126 459 95.5 486.5 c 128,-1,47
 65 514 65 514 65 539 c 0,48,49
 65 551 65 551 72 559 c 0,0,1
EndSplineSet
Validated: 1
EndChar

StartChar: K
Encoding: 75 75 34
Width: 471
GlyphClass: 2
Flags: W
LayerCount: 2
Fore
SplineSet
70 661 m 0,0,1
 79 670 79 670 104 670 c 0,2,3
 111 670 111 670 118 670 c 0,4,5
 132 666 132 666 138 650 c 128,-1,6
 144 634 144 634 144 594 c 0,7,8
 144 574 144 574 143 543 c 0,9,10
 141 518 141 518 141 496 c 0,11,12
 141 424 141 424 153 424 c 0,13,14
 159 424 159 424 196 455.5 c 128,-1,15
 233 487 233 487 276 530 c 0,16,17
 318 571 318 571 354.5 597.5 c 128,-1,18
 391 624 391 624 404 624 c 0,19,20
 406 624 406 624 407 624 c 0,21,22
 420 615 420 615 420 600 c 0,23,24
 420 559 420 559 324 472 c 2,25,-1
 245 401 l 1,26,-1
 305 337 l 2,27,28
 331 309 331 309 356.5 273.5 c 128,-1,29
 382 238 382 238 392 214 c 0,30,31
 403 189 403 189 415.5 171.5 c 128,-1,32
 428 154 428 154 434 154 c 0,33,34
 441 154 441 154 446 142 c 128,-1,35
 451 130 451 130 451 112 c 0,36,37
 451 67 451 67 427 67 c 0,38,39
 406 67 406 67 375 100 c 128,-1,40
 344 133 344 133 313 191 c 0,41,42
 279 254 279 254 252.5 283.5 c 128,-1,43
 226 313 226 313 201 316 c 0,44,45
 191 318 191 318 183 318 c 0,46,47
 145 318 145 318 131.5 279 c 128,-1,48
 118 240 118 240 118 139 c 0,49,50
 118 60 118 60 110 31 c 128,-1,51
 102 2 102 2 78 -11 c 0,52,53
 59 -22 59 -22 40 -22 c 0,54,55
 31 -22 31 -22 26 -19 c 0,56,57
 13 -6 13 -6 13 39 c 0,58,59
 13 67 13 67 19 91.5 c 128,-1,60
 25 116 25 116 34 122 c 0,61,62
 44 129 44 129 49.5 204 c 128,-1,63
 55 279 55 279 55 391 c 0,64,65
 55 497 55 497 59.5 576 c 128,-1,66
 64 655 64 655 70 661 c 0,0,1
EndSplineSet
Validated: 1
EndChar

StartChar: L
Encoding: 76 76 35
Width: 401
GlyphClass: 2
Flags: W
LayerCount: 2
Fore
SplineSet
87 617 m 0,0,1
 92 623 92 623 107 628 c 128,-1,2
 122 633 122 633 139 633 c 0,3,4
 159 633 159 633 168 624 c 128,-1,5
 177 615 177 615 177 592 c 0,6,7
 177 561 177 561 160 481 c 0,8,9
 133 360 133 360 116 255.5 c 128,-1,10
 99 151 99 151 99 115 c 0,11,12
 99 102 99 102 101 100 c 0,13,14
 105 95 105 95 113 95 c 0,15,16
 126 95 126 95 141 104 c 0,17,18
 166 122 166 122 237 146 c 0,19,20
 274 160 274 160 294 160 c 0,21,22
 318 160 318 160 349 135 c 0,23,24
 379 111 379 111 379 86 c 0,25,26
 379 72 379 72 368.5 63.5 c 128,-1,27
 358 55 358 55 340 55 c 0,28,29
 329 55 329 55 316 58 c 0,30,31
 308 60 308 60 293 60 c 0,32,33
 240 60 240 60 172 40 c 0,34,35
 97 17 97 17 69 17 c 0,36,37
 40 17 40 17 29 36 c 128,-1,38
 18 55 18 55 18 101 c 0,39,40
 18 134 18 134 24 204 c 0,41,42
 29 270 29 270 38 330.5 c 128,-1,43
 47 391 47 391 53 404 c 0,44,45
 59 418 59 418 65 452 c 128,-1,46
 71 486 71 486 72 517 c 0,47,48
 76 599 76 599 87 617 c 0,0,1
EndSplineSet
Validated: 1
EndChar

StartChar: M
Encoding: 77 77 36
Width: 504
GlyphClass: 2
Flags: W
LayerCount: 2
Fore
SplineSet
320 546 m 0,0,1
 365 611 365 611 395 611 c 0,2,3
 429 611 429 611 448 529.5 c 128,-1,4
 467 448 467 448 474 275 c 0,5,6
 478 192 478 192 478 146 c 0,7,8
 478 92 478 92 472.5 69 c 128,-1,9
 467 46 467 46 455 42 c 0,10,11
 446 38 446 38 440 38 c 0,12,13
 415 38 415 38 405.5 86.5 c 128,-1,14
 396 135 396 135 393 264 c 0,15,16
 393 338 393 338 388 396 c 128,-1,17
 383 454 383 454 376 460 c 0,18,19
 374 463 374 463 370 463 c 0,20,21
 352 463 352 463 316 429 c 0,22,23
 271 386 271 386 244 386 c 0,24,25
 222 386 222 386 197 414 c 0,26,27
 174 442 174 442 161 442 c 256,28,29
 148 442 148 442 142 409 c 128,-1,30
 136 376 136 376 136 300 c 0,31,32
 136 272 136 272 137 235 c 0,33,34
 137 208 137 208 137 185 c 0,35,36
 137 -13 137 -13 97 -13 c 0,37,38
 85 -13 85 -13 68 4 c 0,39,40
 41 31 41 31 35 287 c 0,41,42
 32 372 32 372 32 420 c 0,43,44
 32 494 32 494 38 525.5 c 128,-1,45
 44 557 44 557 60 569 c 0,46,47
 74 580 74 580 86 580 c 0,48,49
 100 580 100 580 119.5 568 c 128,-1,50
 139 556 139 556 176 527 c 0,51,52
 248 468 248 468 264 468 c 0,53,54
 265 468 265 468 266 469 c 0,55,56
 274 477 274 477 320 546 c 0,0,1
EndSplineSet
Validated: 1
EndChar

StartChar: N
Encoding: 78 78 37
Width: 475
GlyphClass: 2
Flags: W
LayerCount: 2
Fore
SplineSet
351 588 m 0,0,1
 359 601 359 601 373 601 c 0,2,3
 386 601 386 601 407 591 c 0,4,5
 426 580 426 580 433.5 560 c 128,-1,6
 441 540 441 540 444 495.5 c 128,-1,7
 447 451 447 451 447 345 c 0,8,9
 445 224 445 224 438 164.5 c 128,-1,10
 431 105 431 105 415 83 c 0,11,12
 395 56 395 56 367 56 c 0,13,14
 348 56 348 56 331.5 69 c 128,-1,15
 315 82 315 82 305 106 c 0,16,17
 290 142 290 142 207 278 c 2,18,-1
 124 412 l 1,19,-1
 118 324 l 2,20,21
 117 309 117 309 117 292 c 0,22,23
 117 215 117 215 132 160 c 0,24,25
 143 120 143 120 143 96 c 0,26,27
 143 70 143 70 130 56 c 0,28,29
 106 26 106 26 91 26 c 0,30,31
 72 26 72 26 61.5 74 c 128,-1,32
 51 122 51 122 43 233 c 0,33,34
 37 333 37 333 26 487 c 0,35,36
 25 498 25 498 25 506 c 0,37,38
 25 525 25 525 36 533.5 c 128,-1,39
 47 542 47 542 74 545 c 0,40,41
 82 546 82 546 89 546 c 0,42,43
 118 546 118 546 143 516 c 128,-1,44
 168 486 168 486 230 383 c 0,45,46
 313 246 313 246 337 246 c 0,47,48
 356 246 356 246 356 311 c 0,49,50
 356 352 356 352 349 428 c 0,51,52
 345 473 345 473 345 517 c 0,53,54
 345 577 345 577 351 588 c 0,0,1
EndSplineSet
Validated: 1
EndChar

StartChar: O
Encoding: 79 79 38
Width: 487
GlyphClass: 2
Flags: W
LayerCount: 2
Fore
SplineSet
125 566 m 0,0,1
 150 601 150 601 167.5 615 c 128,-1,2
 185 629 185 629 206 629 c 0,3,4
 233 629 233 629 294 599 c 0,5,6
 373 560 373 560 418 489.5 c 128,-1,7
 463 419 463 419 463 333 c 0,8,9
 463 294 463 294 460.5 275 c 128,-1,10
 458 256 458 256 443 229.5 c 128,-1,11
 428 203 428 203 408 181 c 128,-1,12
 388 159 388 159 340 110 c 0,13,14
 287 60 287 60 243 23.5 c 128,-1,15
 199 -13 199 -13 188 -13 c 0,16,17
 175 -13 175 -13 146.5 4.5 c 128,-1,18
 118 22 118 22 88 48 c 0,19,20
 59 71 59 71 47 83.5 c 128,-1,21
 35 96 35 96 26 118.5 c 128,-1,22
 17 141 17 141 16 165 c 128,-1,23
 15 189 15 189 15 241 c 0,24,25
 15 345 15 345 37 410 c 128,-1,26
 59 475 59 475 125 566 c 0,0,1
311 472 m 0,27,28
 288 495 288 495 262 512 c 128,-1,29
 236 529 236 529 225 529 c 0,30,31
 199 529 199 529 164 489 c 128,-1,32
 129 449 129 449 129 418 c 0,33,34
 129 404 129 404 123.5 390.5 c 128,-1,35
 118 377 118 377 109 373 c 0,36,37
 88 361 88 361 88 284 c 0,38,39
 88 196 88 196 113 144 c 0,40,41
 136 94 136 94 177 94 c 0,42,43
 227 94 227 94 298 166 c 0,44,45
 372 244 372 244 372 332 c 0,46,47
 372 411 372 411 311 472 c 0,27,28
EndSplineSet
Validated: 1
EndChar

StartChar: P
Encoding: 80 80 39
Width: 475
GlyphClass: 2
Flags: W
LayerCount: 2
Fore
SplineSet
137 633 m 0,0,1
 171 641 171 641 217 641 c 0,2,3
 267 641 267 641 312 632 c 128,-1,4
 357 623 357 623 376 608 c 0,5,6
 404 586 404 586 435 521.5 c 128,-1,7
 466 457 466 457 466 420 c 0,8,9
 466 405 466 405 449 376.5 c 128,-1,10
 432 348 432 348 409 325 c 0,11,12
 375 290 375 290 344 280 c 128,-1,13
 313 270 313 270 243 270 c 2,14,-1
 132 270 l 1,15,-1
 132 162 l 2,16,17
 132 103 132 103 125 76 c 128,-1,18
 118 49 118 49 99 41 c 0,19,20
 82 36 82 36 66 36 c 0,21,22
 54 36 54 36 49 39 c 0,23,24
 35 48 35 48 35 277 c 0,25,26
 35 397 35 397 40 496 c 128,-1,27
 45 595 45 595 53 604 c 0,28,29
 60 609 60 609 85 618 c 128,-1,30
 110 627 110 627 137 633 c 0,0,1
314 539 m 0,31,32
 293 553 293 553 261 561.5 c 128,-1,33
 229 570 229 570 199 570 c 0,34,35
 160 570 160 570 147 556 c 0,36,37
 132 542 132 542 132 484 c 0,38,39
 132 447 132 447 139 412.5 c 128,-1,40
 146 378 146 378 157 366 c 0,41,42
 182 341 182 341 251 341 c 0,43,44
 288 341 288 341 318 350 c 128,-1,45
 348 359 348 359 357 375 c 0,46,47
 369 396 369 396 369 425 c 0,48,49
 369 457 369 457 354 489 c 128,-1,50
 339 521 339 521 314 539 c 0,31,32
EndSplineSet
Validated: 1
EndChar

StartChar: Q
Encoding: 81 81 40
Width: 491
GlyphClass: 2
Flags: W
LayerCount: 2
Fore
SplineSet
149 597 m 0,0,1
 179 630 179 630 207 630 c 0,2,3
 233 630 233 630 297 599 c 0,4,5
 375 561 375 561 421 485.5 c 128,-1,6
 467 410 467 410 467 329 c 0,7,8
 467 252 467 252 424 196 c 0,9,10
 384 146 384 146 384 117 c 0,11,12
 384 95 384 95 409 85 c 0,13,14
 423 79 423 79 423 72 c 256,15,16
 423 65 423 65 407 48 c 0,17,18
 390 29 390 29 382 29 c 256,19,20
 374 29 374 29 361 50 c 0,21,22
 351 66 351 66 336 66 c 0,23,24
 318 66 318 66 255 33 c 2,25,-1
 168 -13 l 1,26,-1
 99 39 l 2,27,28
 55 73 55 73 32.5 128 c 128,-1,29
 10 183 10 183 10 251 c 0,30,31
 10 338 10 338 46 430 c 128,-1,32
 82 522 82 522 149 597 c 0,0,1
307 477 m 0,33,34
 286 498 286 498 262.5 513.5 c 128,-1,35
 239 529 239 529 228 529 c 0,36,37
 202 529 202 529 167 489 c 128,-1,38
 132 449 132 449 132 418 c 0,39,40
 132 404 132 404 126.5 390.5 c 128,-1,41
 121 377 121 377 112 373 c 0,42,43
 91 361 91 361 91 284 c 0,44,45
 91 196 91 196 116 144 c 0,46,47
 127 119 127 119 147 105.5 c 128,-1,48
 167 92 167 92 191 92 c 0,49,50
 231 92 231 92 259 127 c 0,51,52
 277 147 277 147 277 156 c 0,53,54
 277 164 277 164 262 168 c 0,55,56
 244 175 244 175 244 186 c 256,57,58
 244 197 244 197 263 206.5 c 128,-1,59
 282 216 282 216 309 216 c 0,60,61
 338 216 338 216 351 229.5 c 128,-1,62
 364 243 364 243 372 279 c 0,63,64
 378 307 378 307 378 331 c 0,65,66
 378 406 378 406 307 477 c 0,33,34
EndSplineSet
Validated: 1
EndChar

StartChar: R
Encoding: 82 82 41
Width: 473
GlyphClass: 2
Flags: W
LayerCount: 2
Fore
SplineSet
101 614 m 0,0,1
 145 638 145 638 185 638 c 0,2,3
 186 638 186 638 187 638 c 0,4,5
 232 638 232 638 316 592 c 128,-1,6
 400 546 400 546 425 508 c 0,7,8
 443 480 443 480 443 445 c 0,9,10
 443 411 443 411 426 378.5 c 128,-1,11
 409 346 409 346 379 322 c 0,12,13
 333 284 333 284 333 258 c 0,14,15
 333 238 333 238 361 228 c 0,16,17
 391 213 391 213 391 190 c 0,18,19
 391 163 391 163 409 156 c 0,20,21
 416 155 416 155 426.5 136 c 128,-1,22
 437 117 437 117 443 94 c 0,23,24
 449 68 449 68 449 57 c 0,25,26
 449 42 449 42 435 42 c 0,27,28
 429 42 429 42 419 44 c 0,29,30
 404 47 404 47 379.5 69 c 128,-1,31
 355 91 355 91 337 118 c 0,32,33
 303 169 303 169 235.5 217.5 c 128,-1,34
 168 266 168 266 136 266 c 0,35,36
 125 266 125 266 121 260 c 0,37,38
 115 251 115 251 115 220.5 c 128,-1,39
 115 190 115 190 121 156 c 0,40,41
 125 131 125 131 125 111 c 0,42,43
 125 50 125 50 86 50 c 0,44,45
 69 50 69 50 45 62 c 0,46,47
 20 76 20 76 20 88 c 0,48,49
 20 97 20 97 31 110 c 0,50,51
 50 132 50 132 50 279 c 0,52,53
 50 315 50 315 49 358 c 0,54,55
 47 423 47 423 47 483 c 0,56,57
 47 580 47 580 51 584 c 0,58,59
 53 585 53 585 70.5 595.5 c 128,-1,60
 88 606 88 606 101 614 c 0,0,1
329 492 m 0,61,62
 303 519 303 519 274.5 529.5 c 128,-1,63
 246 540 246 540 197 540 c 2,64,-1
 109 540 l 1,65,-1
 115 456 l 2,66,67
 119 401 119 401 130.5 384 c 128,-1,68
 142 367 142 367 181 356 c 0,69,70
 218 346 218 346 251 346 c 0,71,72
 301 346 301 346 332 367 c 128,-1,73
 363 388 363 388 363 422 c 256,74,75
 363 456 363 456 329 492 c 0,61,62
EndSplineSet
Validated: 1
EndChar

StartChar: S
Encoding: 83 83 42
Width: 417
GlyphClass: 2
Flags: W
LayerCount: 2
Fore
SplineSet
192 638 m 0,0,1
 211 641 211 641 224 641 c 0,2,3
 247 641 247 641 267.5 629.5 c 128,-1,4
 288 618 288 618 325 585 c 0,5,6
 372 543 372 543 372 497 c 0,7,8
 372 473 372 473 356 458 c 0,9,10
 355 457 355 457 352 457 c 0,11,12
 342 457 342 457 321 471.5 c 128,-1,13
 300 486 300 486 277 508 c 2,14,-1
 213 571 l 1,15,-1
 165 521 l 2,16,17
 124 479 124 479 124 444 c 0,18,19
 124 421 124 421 142 406 c 128,-1,20
 160 391 160 391 194 388 c 0,21,22
 323 375 323 375 381 288 c 0,23,24
 401 257 401 257 401 238 c 256,25,26
 401 219 401 219 381 181 c 0,27,28
 308 31 308 31 167 25 c 0,29,30
 163 25 163 25 158 25 c 0,31,32
 92 25 92 25 54.5 48 c 128,-1,33
 17 71 17 71 17 112 c 0,34,35
 17 161 17 161 43 161 c 0,36,37
 60 161 60 161 92 142 c 0,38,39
 125 119 125 119 167 119 c 0,40,41
 205 119 205 119 238 137 c 128,-1,42
 271 155 271 155 288 185 c 0,43,44
 302 212 302 212 302 233 c 0,45,46
 302 290 302 290 179 306 c 0,47,48
 143 311 143 311 109 325.5 c 128,-1,49
 75 340 75 340 63 356 c 0,50,51
 42 384 42 384 42 426 c 0,52,53
 42 495 42 495 87.5 561.5 c 128,-1,54
 133 628 133 628 192 638 c 0,0,1
EndSplineSet
Validated: 1
EndChar

StartChar: T
Encoding: 84 84 43
Width: 480
GlyphClass: 2
Flags: W
LayerCount: 2
Fore
SplineSet
-6 612 m 256,0,1
 0 627 0 627 24 632.5 c 128,-1,2
 48 638 48 638 112 638 c 0,3,4
 153 638 153 638 230 636 c 0,5,6
 298 633 298 633 333.5 631 c 128,-1,7
 369 629 369 629 397.5 626 c 128,-1,8
 426 623 426 623 436.5 618 c 128,-1,9
 447 613 447 613 451.5 606.5 c 128,-1,10
 456 600 456 600 456 588 c 0,11,12
 456 565 456 565 439 556 c 128,-1,13
 422 547 422 547 372 544 c 2,14,-1
 290 538 l 1,15,-1
 278 374 l 2,16,17
 267 202 267 202 260 140 c 0,18,19
 257 97 257 97 247 82 c 128,-1,20
 237 67 237 67 208 64 c 2,21,-1
 160 56 l 1,22,-1
 176 224 l 2,23,24
 190 381 190 381 194 470 c 2,25,-1
 196 548 l 1,26,-1
 104 542 l 2,27,28
 92 542 92 542 81 542 c 0,29,30
 -12 542 -12 542 -12 585 c 0,31,32
 -12 597 -12 597 -6 612 c 256,0,1
EndSplineSet
Validated: 1
EndChar

StartChar: U
Encoding: 85 85 44
Width: 449
GlyphClass: 2
Flags: W
LayerCount: 2
Fore
SplineSet
337 626 m 0,0,1
 339 641 339 641 357 641 c 0,2,3
 372 641 372 641 390.5 629.5 c 128,-1,4
 409 618 409 618 419 600 c 0,5,6
 426 586 426 586 426 540 c 0,7,8
 426 465 426 465 410.5 368 c 128,-1,9
 395 271 395 271 377 252 c 0,10,11
 359 230 359 230 359 190 c 0,12,13
 359 173 359 173 342 141 c 128,-1,14
 325 109 325 109 303 82 c 0,15,16
 275 49 275 49 257.5 36 c 128,-1,17
 240 23 240 23 221 23 c 0,18,19
 211 23 211 23 197 26 c 0,20,21
 110 48 110 48 64.5 121 c 128,-1,22
 19 194 19 194 19 310 c 0,23,24
 19 394 19 394 43 496 c 0,25,26
 58 557 58 557 69 576.5 c 128,-1,27
 80 596 80 596 100 596 c 0,28,29
 104 596 104 596 109 596 c 0,30,31
 143 591 143 591 143 564 c 0,32,33
 143 558 143 558 141 550 c 0,34,35
 132 499 132 499 125 344 c 0,36,37
 122 296 122 296 122 263 c 0,38,39
 122 179 122 179 141 149.5 c 128,-1,40
 160 120 160 120 209 120 c 0,41,42
 235 120 235 120 249.5 137.5 c 128,-1,43
 264 155 264 155 279 206 c 0,44,45
 305 292 305 292 323 342 c 0,46,47
 339 391 339 391 339 483 c 0,48,49
 339 493 339 493 339 502 c 0,50,51
 337 562 337 562 337 626 c 0,0,1
EndSplineSet
Validated: 1
EndChar

StartChar: V
Encoding: 86 86 45
Width: 399
GlyphClass: 2
Flags: W
LayerCount: 2
Fore
SplineSet
9 600 m 0,0,1
 20 617 20 617 45 617 c 0,2,3
 50 617 50 617 55 616 c 0,4,5
 81 611 81 611 108.5 530.5 c 128,-1,6
 136 450 136 450 149 336 c 0,7,8
 163 240 163 240 175 240 c 0,9,10
 181 240 181 240 193 267.5 c 128,-1,11
 205 295 205 295 217 336 c 0,12,13
 236 407 236 407 259 470 c 0,14,15
 275 504 275 504 283 550 c 0,16,17
 286 571 286 571 301 583.5 c 128,-1,18
 316 596 316 596 334 596 c 0,19,20
 361 596 361 596 371 570 c 0,21,22
 375 559 375 559 375 547 c 0,23,24
 375 510 375 510 317 396 c 0,25,26
 299 360 299 360 299 322 c 0,27,28
 299 306 299 306 293 290 c 128,-1,29
 287 274 287 274 279 269.5 c 128,-1,30
 271 265 271 265 265 247 c 128,-1,31
 259 229 259 229 259 210 c 0,32,33
 259 190 259 190 253.5 172 c 128,-1,34
 248 154 248 154 239 150 c 0,35,36
 231 145 231 145 225 126.5 c 128,-1,37
 219 108 219 108 219 88 c 0,38,39
 219 62 219 62 213.5 52 c 128,-1,40
 208 42 208 42 192 42 c 0,41,42
 185 42 185 42 175 44 c 0,43,44
 154 47 154 47 140 59.5 c 128,-1,45
 126 72 126 72 123 90 c 0,46,47
 115 135 115 135 99 170 c 0,48,49
 82 207 82 207 71 300 c 0,50,51
 49 514 49 514 15 554 c 0,52,53
 5 568 5 568 5 584 c 0,54,55
 5 593 5 593 9 600 c 0,0,1
EndSplineSet
Validated: 1
EndChar

StartChar: W
Encoding: 87 87 46
Width: 497
GlyphClass: 2
Flags: W
LayerCount: 2
Fore
SplineSet
417 633 m 0,0,1
 431 649 431 649 446 649 c 0,2,3
 451 649 451 649 455 647 c 0,4,5
 473 636 473 636 473 548.5 c 128,-1,6
 473 461 473 461 455 451 c 0,7,8
 448 447 448 447 440 421.5 c 128,-1,9
 432 396 432 396 427 365 c 0,10,11
 411 254 411 254 395.5 196 c 128,-1,12
 380 138 380 138 357 102 c 2,13,-1
 325 56 l 1,14,-1
 289 100 l 2,15,16
 274 117 274 117 263.5 142 c 128,-1,17
 253 167 253 167 253 183 c 0,18,19
 253 217 253 217 238 217 c 0,20,21
 226 217 226 217 212 194 c 128,-1,22
 198 171 198 171 193 137 c 0,23,24
 187 100 187 100 176.5 85 c 128,-1,25
 166 70 166 70 144 70 c 0,26,27
 133 70 133 70 125.5 73.5 c 128,-1,28
 118 77 118 77 110.5 85.5 c 128,-1,29
 103 94 103 94 96 115.5 c 128,-1,30
 89 137 89 137 82 163 c 128,-1,31
 75 189 75 189 65.5 238 c 128,-1,32
 56 287 56 287 46 342 c 128,-1,33
 36 397 36 397 22 483 c 0,34,35
 17 514 17 514 17 546 c 128,-1,36
 17 578 17 578 22 593 c 0,37,38
 31 615 31 615 38 615 c 128,-1,39
 45 615 45 615 68 593 c 0,40,41
 103 557 103 557 116 419 c 0,42,43
 130 261 130 261 153 261 c 0,44,45
 162 261 162 261 175 285 c 0,46,47
 195 319 195 319 224 319 c 0,48,49
 244 319 244 319 263 302.5 c 128,-1,50
 282 286 282 286 295 255 c 2,51,-1
 323 189 l 1,52,-1
 335 269 l 1,53,54
 392 602 392 602 417 633 c 0,0,1
EndSplineSet
Validated: 1
EndChar

StartChar: X
Encoding: 88 88 47
Width: 418
GlyphClass: 2
Flags: W
LayerCount: 2
Fore
SplineSet
38 594 m 0,0,1
 44 599 44 599 53 599 c 0,2,3
 74 599 74 599 101.5 573 c 128,-1,4
 129 547 129 547 144 511 c 0,5,6
 158 481 158 481 177 460.5 c 128,-1,7
 196 440 196 440 208 440 c 0,8,9
 219 440 219 440 219 457 c 0,10,11
 219 479 219 479 269 543 c 128,-1,12
 319 607 319 607 336 607 c 0,13,14
 351 607 351 607 359 597 c 128,-1,15
 367 587 367 587 367 572 c 0,16,17
 367 536 367 536 336 509 c 0,18,19
 319 492 319 492 298.5 464 c 128,-1,20
 278 436 278 436 267 413 c 0,21,22
 247 375 247 375 247 359 c 0,23,24
 247 340 247 340 281 294 c 0,25,26
 322 231 322 231 354 203 c 0,27,28
 399 162 399 162 399 123 c 0,29,30
 399 102 399 102 382 88 c 0,31,32
 374 81 374 81 366 81 c 0,33,34
 354 81 354 81 338.5 96.5 c 128,-1,35
 323 112 323 112 296 150 c 0,36,37
 241 223 241 223 225 255 c 0,38,39
 223 259 223 259 220 259 c 0,40,41
 204 259 204 259 163.5 205 c 128,-1,42
 123 151 123 151 123 127 c 0,43,44
 123 119 123 119 111.5 108 c 128,-1,45
 100 97 100 97 85 88 c 0,46,47
 69 80 69 80 57 80 c 256,48,49
 45 80 45 80 38 88 c 128,-1,50
 31 96 31 96 31 109 c 0,51,52
 31 137 31 137 58 167 c 0,53,54
 72 183 72 183 92 215.5 c 128,-1,55
 112 248 112 248 125 276 c 0,56,57
 148 326 148 326 148 346 c 0,58,59
 148 365 148 365 127 405 c 0,60,61
 114 428 114 428 94.5 453 c 128,-1,62
 75 478 75 478 62 488 c 0,63,64
 45 500 45 500 35.5 519.5 c 128,-1,65
 26 539 26 539 26 559 c 0,66,67
 26 582 26 582 38 594 c 0,0,1
EndSplineSet
Validated: 1
EndChar

StartChar: Y
Encoding: 89 89 48
Width: 459
GlyphClass: 2
Flags: W
LayerCount: 2
Fore
SplineSet
347 623 m 0,0,1
 354 641 354 641 368.5 651.5 c 128,-1,2
 383 662 383 662 398 662 c 0,3,4
 414 662 414 662 425 651.5 c 128,-1,5
 436 641 436 641 436 633 c 0,6,7
 436 621 436 621 408.5 579.5 c 128,-1,8
 381 538 381 538 341 490 c 0,9,10
 312 455 312 455 299 439.5 c 128,-1,11
 286 424 286 424 271 401 c 128,-1,12
 256 378 256 378 252.5 368.5 c 128,-1,13
 249 359 249 359 244.5 335.5 c 128,-1,14
 240 312 240 312 240 295.5 c 128,-1,15
 240 279 240 279 240 242 c 0,16,17
 240 183 240 183 237 159 c 128,-1,18
 234 135 234 135 226.5 126 c 128,-1,19
 219 117 219 117 201 117 c 128,-1,20
 183 117 183 117 174.5 127.5 c 128,-1,21
 166 138 166 138 160.5 165.5 c 128,-1,22
 155 193 155 193 149 260 c 0,23,24
 139 351 139 351 125 390.5 c 128,-1,25
 111 430 111 430 70 481 c 0,26,27
 -9 577 -9 577 -9 613 c 0,28,29
 -9 632 -9 632 11 640 c 0,30,31
 13 641 13 641 15 641 c 0,32,33
 43 641 43 641 107 575.5 c 128,-1,34
 171 510 171 510 172 479 c 0,35,36
 172 469 172 469 178.5 461.5 c 128,-1,37
 185 454 185 454 193 454 c 0,38,39
 215 454 215 454 271.5 517 c 128,-1,40
 328 580 328 580 347 623 c 0,0,1
EndSplineSet
Validated: 1
EndChar

StartChar: Z
Encoding: 90 90 49
Width: 459
GlyphClass: 2
Flags: W
LayerCount: 2
Fore
SplineSet
15 610 m 0,0,1
 23 628 23 628 133 628 c 0,2,3
 159 628 159 628 188 627 c 0,4,5
 280 625 280 625 319.5 613 c 128,-1,6
 359 601 359 601 359 574 c 256,7,8
 359 547 359 547 321 494 c 0,9,10
 267 416 267 416 229.5 342.5 c 128,-1,11
 192 269 192 269 192 240 c 0,12,13
 192 224 192 224 182.5 205 c 128,-1,14
 173 186 173 186 161 175 c 0,15,16
 145 161 145 161 145 143 c 256,17,18
 145 125 145 125 158.5 111.5 c 128,-1,19
 172 98 172 98 191 98 c 0,20,21
 201 98 201 98 211 102 c 0,22,23
 235 113 235 113 334 133 c 0,24,25
 376 141 376 141 396 141 c 0,26,27
 428 141 428 141 436 119 c 0,28,29
 440 107 440 107 440 97 c 0,30,31
 440 30 440 30 244 25 c 0,32,33
 206 24 206 24 180 24 c 0,34,35
 98 24 98 24 72 40 c 128,-1,36
 46 56 46 56 46 102 c 0,37,38
 46 136 46 136 69.5 192 c 128,-1,39
 93 248 93 248 184 431 c 2,40,-1
 234 529 l 1,41,-1
 142 529 l 2,42,43
 85 529 85 529 47 547 c 128,-1,44
 9 565 9 565 9 591 c 0,45,46
 9 601 9 601 15 610 c 0,0,1
EndSplineSet
Validated: 1
EndChar

StartChar: a
Encoding: 97 97 50
Width: 454
GlyphClass: 2
Flags: W
LayerCount: 2
Fore
SplineSet
128 527 m 0,0,1
 145 554 145 554 166.5 574.5 c 128,-1,2
 188 595 188 595 200 595 c 0,3,4
 246 595 246 595 301 496 c 128,-1,5
 356 397 356 397 393 268.5 c 128,-1,6
 430 140 430 140 430 53 c 0,7,8
 430 -28 430 -28 394 -36 c 0,9,10
 389 -37 389 -37 386 -37 c 0,11,12
 368 -37 368 -37 358.5 -19.5 c 128,-1,13
 349 -2 349 -2 341 43 c 0,14,15
 337 65 337 65 334 82.5 c 128,-1,16
 331 100 331 100 328.5 115 c 128,-1,17
 326 130 326 130 323 141 c 128,-1,18
 320 152 320 152 317 161 c 128,-1,19
 314 170 314 170 310.5 176 c 128,-1,20
 307 182 307 182 303 185.5 c 128,-1,21
 299 189 299 189 294 190.5 c 128,-1,22
 289 192 289 192 282 192 c 0,23,24
 268 192 268 192 210 175 c 0,25,26
 114 148 114 148 107 105 c 0,27,28
 94 13 94 13 80.5 -14 c 128,-1,29
 67 -41 67 -41 35 -41 c 0,30,31
 -11 -41 -11 -41 -11 23 c 0,32,33
 -11 65 -11 65 10 132 c 256,34,35
 31 199 31 199 60 327 c 0,36,37
 69 380 69 380 89.5 438.5 c 128,-1,38
 110 497 110 497 128 527 c 0,0,1
273 373 m 0,39,40
 262 417 262 417 246.5 440.5 c 128,-1,41
 231 464 231 464 215 464 c 0,42,43
 192 464 192 464 175 420 c 0,44,45
 133 311 133 311 133 281 c 0,46,47
 133 266 133 266 140.5 260.5 c 128,-1,48
 148 255 148 255 164 255 c 0,49,50
 214 255 214 255 245 281 c 128,-1,51
 276 307 276 307 276 348 c 0,52,53
 276 360 276 360 273 373 c 0,39,40
EndSplineSet
Validated: 1
EndChar

StartChar: b
Encoding: 98 98 51
Width: 470
GlyphClass: 2
Flags: W
LayerCount: 2
Fore
SplineSet
52 625 m 0,0,1
 62 635 62 635 102 635 c 0,2,3
 165 635 165 635 254 613 c 128,-1,4
 343 591 343 591 372 565 c 0,5,6
 420 520 420 520 420 485 c 0,7,8
 420 453 420 453 384 397 c 0,9,10
 357 357 357 357 357 343 c 0,11,12
 357 330 357 330 379 313 c 0,13,14
 413 289 413 289 433.5 251.5 c 128,-1,15
 454 214 454 214 454 181 c 0,16,17
 454 162 454 162 447 148 c 0,18,19
 421 95 421 95 397 41 c 0,20,21
 375 -7 375 -7 331 -32 c 128,-1,22
 287 -57 287 -57 228 -57 c 0,23,24
 202 -57 202 -57 175 -52 c 0,25,26
 147 -47 147 -47 130.5 -43 c 128,-1,27
 114 -39 114 -39 97.5 -29 c 128,-1,28
 81 -19 81 -19 72.5 -10.5 c 128,-1,29
 64 -2 64 -2 56 20.5 c 128,-1,30
 48 43 48 43 45 64 c 128,-1,31
 42 85 42 85 39.5 127 c 128,-1,32
 37 169 37 169 36.5 209 c 128,-1,33
 36 249 36 249 36 318 c 0,34,35
 36 440 36 440 40.5 529.5 c 128,-1,36
 45 619 45 619 52 625 c 0,0,1
318 500 m 0,37,38
 307 515 307 515 280.5 528.5 c 128,-1,39
 254 542 254 542 227 545 c 0,40,41
 208 547 208 547 199 547 c 0,42,43
 171 547 171 547 160 525 c 128,-1,44
 149 503 149 503 131 418 c 0,45,46
 103 284 103 284 103 192 c 0,47,48
 103 75 103 75 147 50 c 0,49,50
 192 27 192 27 232 27 c 0,51,52
 286 27 286 27 319.5 67.5 c 128,-1,53
 353 108 353 108 354 179 c 0,54,55
 354 200 354 200 352.5 212.5 c 128,-1,56
 351 225 351 225 344.5 236.5 c 128,-1,57
 338 248 338 248 329.5 253.5 c 128,-1,58
 321 259 321 259 301.5 265 c 128,-1,59
 282 271 282 271 259 274 c 128,-1,60
 236 277 236 277 197 282 c 0,61,62
 167 285 167 285 151 295 c 128,-1,63
 135 305 135 305 135 317 c 256,64,65
 135 329 135 329 149.5 339.5 c 128,-1,66
 164 350 164 350 190 356 c 0,67,68
 248 369 248 369 286.5 403.5 c 128,-1,69
 325 438 325 438 325 473 c 0,70,71
 325 487 325 487 318 500 c 0,37,38
EndSplineSet
Validated: 1
EndChar

StartChar: c
Encoding: 99 99 52
Width: 469
GlyphClass: 2
Flags: W
LayerCount: 2
Fore
SplineSet
202 573 m 0,0,1
 241 615 241 615 292 615 c 0,2,3
 337 615 337 615 369.5 582.5 c 128,-1,4
 402 550 402 550 402 499 c 0,5,6
 402 472 402 472 386.5 456.5 c 128,-1,7
 371 441 371 441 350 441 c 0,8,9
 333 441 333 441 318.5 451.5 c 128,-1,10
 304 462 304 462 297 482 c 0,11,12
 286 509 286 509 276 509 c 0,13,14
 268 509 268 509 249 487 c 0,15,16
 191 429 191 429 145 313 c 128,-1,17
 99 197 99 197 99 120 c 0,18,19
 99 87 99 87 109 71 c 0,20,21
 151 12 151 12 215 12 c 0,22,23
 260 12 260 12 318 40 c 0,24,25
 378 69 378 69 415 69 c 0,26,27
 445 69 445 69 445 49 c 0,28,29
 445 21 445 21 390 -24 c 0,30,31
 320 -80 320 -80 240 -80 c 0,32,33
 156 -80 156 -80 76 -19 c 0,34,35
 29 17 29 17 13 45.5 c 128,-1,36
 -3 74 -3 74 -3 123 c 0,37,38
 -3 157 -3 157 3.5 193 c 128,-1,39
 10 229 10 229 19 247 c 0,40,41
 25 259 25 259 53.5 317 c 128,-1,42
 82 375 82 375 95 401 c 0,43,44
 116 447 116 447 148 498 c 128,-1,45
 180 549 180 549 202 573 c 0,0,1
EndSplineSet
Validated: 1
EndChar

StartChar: d
Encoding: 100 100 53
Width: 478
GlyphClass: 2
Flags: W
LayerCount: 2
Fore
SplineSet
54 600 m 0,0,1
 59 607 59 607 93.5 612.5 c 128,-1,2
 128 618 128 618 170 618 c 0,3,4
 269 618 269 618 344.5 566 c 128,-1,5
 420 514 420 514 438 432 c 0,6,7
 454 360 454 360 454 291 c 0,8,9
 454 129 454 129 374 24 c 128,-1,10
 294 -81 294 -81 163 -84 c 0,11,12
 155 -84 155 -84 148 -84 c 0,13,14
 100 -84 100 -84 77 -65 c 128,-1,15
 54 -46 54 -46 44.5 6.5 c 128,-1,16
 35 59 35 59 35 168 c 0,17,18
 35 214 35 214 36 284 c 0,19,20
 44 587 44 587 54 600 c 0,0,1
259 514 m 0,21,22
 209 527 209 527 188.5 527 c 128,-1,23
 168 527 168 527 138.5 374.5 c 128,-1,24
 109 222 109 222 109 118 c 0,25,26
 109 93 109 93 109 80.5 c 128,-1,27
 109 68 109 68 112.5 55.5 c 128,-1,28
 116 43 116 43 119 39 c 128,-1,29
 122 35 122 35 132.5 31.5 c 128,-1,30
 143 28 143 28 152.5 27.5 c 128,-1,31
 162 27 162 27 184 27 c 0,32,33
 273 27 273 27 316 84.5 c 128,-1,34
 359 142 359 142 359 261 c 0,35,36
 359 487 359 487 259 514 c 0,21,22
EndSplineSet
Validated: 1
EndChar

StartChar: e
Encoding: 101 101 54
Width: 467
GlyphClass: 2
Flags: W
LayerCount: 2
Fore
SplineSet
328 593 m 0,0,1
 343 603 343 603 362 603 c 0,2,3
 392 603 392 603 418 584 c 128,-1,4
 444 565 444 565 444 541 c 0,5,6
 444 509 444 509 283 495 c 0,7,8
 184 485 184 485 156.5 476.5 c 128,-1,9
 129 468 129 468 129 445 c 0,10,11
 129 439 129 439 131 430 c 0,12,13
 134 399 134 399 152.5 389.5 c 128,-1,14
 171 380 171 380 228 380 c 0,15,16
 272 380 272 380 296 370.5 c 128,-1,17
 320 361 320 361 320 346 c 0,18,19
 320 333 320 333 300 317.5 c 128,-1,20
 280 302 280 302 242 289 c 0,21,22
 191 272 191 272 162.5 237 c 128,-1,23
 134 202 134 202 134 158 c 0,24,25
 134 130 134 130 147 102 c 0,26,27
 157 79 157 79 169 70 c 128,-1,28
 181 61 181 61 204 61 c 0,29,30
 220 61 220 61 249 66 c 0,31,32
 289 72 289 72 318 72 c 0,33,34
 386 72 386 72 386 36 c 0,35,36
 386 23 386 23 376 5 c 0,37,38
 361 -23 361 -23 332 -32 c 128,-1,39
 303 -41 303 -41 228 -41 c 0,40,41
 227 -41 227 -41 223 -41 c 128,-1,42
 219 -41 219 -41 217 -41 c 0,43,44
 192 -41 192 -41 178.5 -41 c 128,-1,45
 165 -41 165 -41 146.5 -40 c 128,-1,46
 128 -39 128 -39 119.5 -37.5 c 128,-1,47
 111 -36 111 -36 99 -33 c 128,-1,48
 87 -30 87 -30 82 -26.5 c 128,-1,49
 77 -23 77 -23 70 -16.5 c 128,-1,50
 63 -10 63 -10 61 -2 c 128,-1,51
 59 6 59 6 56 17 c 128,-1,52
 53 28 53 28 52.5 41 c 128,-1,53
 52 54 52 54 52 71 c 0,54,55
 52 94 52 94 56 177 c 0,56,57
 57 208 57 208 57 237 c 0,58,59
 57 381 57 381 35 436 c 0,60,61
 20 474 20 474 20 499 c 0,62,63
 20 538 20 538 58 555.5 c 128,-1,64
 96 573 96 573 181 573 c 0,65,66
 229 573 229 573 273 579 c 128,-1,67
 317 585 317 585 328 593 c 0,0,1
EndSplineSet
Validated: 1
EndChar

StartChar: f
Encoding: 102 102 55
Width: 472
GlyphClass: 2
Flags: W
LayerCount: 2
Fore
SplineSet
71 627 m 0,0,1
 86 646 86 646 113.5 653.5 c 128,-1,2
 141 661 141 661 201 661 c 0,3,4
 230 661 230 661 275 659 c 0,5,6
 326 657 326 657 353 655 c 128,-1,7
 380 653 380 653 402 650 c 128,-1,8
 424 647 424 647 432.5 641 c 128,-1,9
 441 635 441 635 444.5 627.5 c 128,-1,10
 448 620 448 620 448 607 c 128,-1,11
 448 594 448 594 444.5 586.5 c 128,-1,12
 441 579 441 579 433.5 573 c 128,-1,13
 426 567 426 567 406.5 564 c 128,-1,14
 387 561 387 561 363.5 559 c 128,-1,15
 340 557 340 557 296 555 c 2,16,-1
 141 548 l 1,17,-1
 141 439 l 1,18,-1
 141 327 l 1,19,-1
 243 341 l 2,20,21
 283 345 283 345 301 345 c 0,22,23
 329 345 329 345 337.5 336.5 c 128,-1,24
 346 328 346 328 346 305 c 0,25,26
 346 265 346 265 313 248.5 c 128,-1,27
 280 232 280 232 205 232 c 2,28,-1
 134 232 l 1,29,-1
 148 84 l 2,30,31
 154 23 154 23 154 -8 c 128,-1,32
 154 -39 154 -39 148.5 -51.5 c 128,-1,33
 143 -64 143 -64 130 -64 c 0,34,35
 116 -64 116 -64 97 -41.5 c 128,-1,36
 78 -19 78 -19 64 11 c 0,37,38
 32 79 32 79 32 310 c 0,39,40
 32 424 32 424 42.5 515 c 128,-1,41
 53 606 53 606 71 627 c 0,0,1
EndSplineSet
Validated: 1
EndChar

StartChar: g
Encoding: 103 103 56
Width: 586
GlyphClass: 2
Flags: W
LayerCount: 2
Fore
SplineSet
140 556 m 0,0,1
 169 596 169 596 198.5 606.5 c 128,-1,2
 228 617 228 617 315 617 c 0,3,4
 403 617 403 617 459.5 597 c 128,-1,5
 516 577 516 577 516 546 c 0,6,7
 516 536 516 536 510 526 c 0,8,9
 497 506 497 506 444 506 c 0,10,11
 421 506 421 506 390 510 c 0,12,13
 362 514 362 514 330 514 c 0,14,15
 266 514 266 514 235 504 c 0,16,17
 187 485 187 485 150 409.5 c 128,-1,18
 113 334 113 334 113 256 c 0,19,20
 113 213 113 213 132.5 158.5 c 128,-1,21
 152 104 152 104 180.5 65.5 c 128,-1,22
 209 27 209 27 231 27 c 0,23,24
 262 29 262 29 311.5 72 c 128,-1,25
 361 115 361 115 403 179 c 0,26,27
 451 247 451 247 451 272 c 0,28,29
 451 287 451 287 432 287 c 0,30,31
 422 287 422 287 408 283 c 0,32,33
 383 277 383 277 363 277 c 0,34,35
 337 277 337 277 322.5 287 c 128,-1,36
 308 297 308 297 308 314 c 0,37,38
 308 328 308 328 317 345 c 0,39,40
 330 370 330 370 355 380 c 128,-1,41
 380 390 380 390 428 390 c 0,42,43
 490 390 490 390 526 370 c 128,-1,44
 562 350 562 350 562 317 c 0,45,46
 562 297 562 297 548 274 c 0,47,48
 537 258 537 258 529 237.5 c 128,-1,49
 521 217 521 217 521 206 c 0,50,51
 521 196 521 196 493.5 155.5 c 128,-1,52
 466 115 466 115 428 70 c 0,53,54
 365 -5 365 -5 335 -23 c 128,-1,55
 305 -41 305 -41 244 -41 c 0,56,57
 190 -41 190 -41 160 -28 c 128,-1,58
 130 -15 130 -15 99 22 c 0,59,60
 77 48 77 48 61 77.5 c 128,-1,61
 45 107 45 107 45 122 c 0,62,63
 45 138 45 138 38.5 154 c 128,-1,64
 32 170 32 170 22 174 c 0,65,66
 -4 190 -4 190 -4 234 c 0,67,68
 -4 288 -4 288 34 373.5 c 128,-1,69
 72 459 72 459 140 556 c 0,0,1
EndSplineSet
Validated: 1
EndChar

StartChar: h
Encoding: 104 104 57
Width: 521
GlyphClass: 2
Flags: W
LayerCount: 2
Fore
SplineSet
46 441 m 0,0,1
 50 495 50 495 53 523.5 c 128,-1,2
 56 552 56 552 59.5 576.5 c 128,-1,3
 63 601 63 601 67.5 610.5 c 128,-1,4
 72 620 72 620 78 625 c 128,-1,5
 84 630 84 630 93 630 c 0,6,7
 98 630 98 630 106 629 c 0,8,9
 150 623 150 623 150 553 c 0,10,11
 150 508 150 508 131 441 c 2,12,-1
 115 383 l 1,13,-1
 242 383 l 1,14,-1
 369 383 l 1,15,-1
 373 452 l 2,16,17
 377 522 377 522 377 570 c 0,18,19
 378 597 378 597 394 613.5 c 128,-1,20
 410 630 410 630 429 630 c 0,21,22
 454 630 454 630 464 604 c 0,23,24
 467 597 467 597 467 578 c 0,25,26
 467 523 467 523 452 431 c 0,27,28
 427 296 427 296 427 236 c 0,29,30
 427 165 427 165 464 135 c 0,31,32
 497 108 497 108 497 76 c 0,33,34
 497 57 497 57 485 43 c 128,-1,35
 473 29 473 29 452 23 c 0,36,37
 446 21 446 21 439 21 c 0,38,39
 401 21 401 21 374.5 74 c 128,-1,40
 348 127 348 127 348 206 c 2,41,-1
 348 300 l 1,42,-1
 233 300 l 1,43,-1
 121 300 l 1,44,-1
 115 181 l 2,45,46
 110 103 110 103 101.5 81.5 c 128,-1,47
 93 60 93 60 67 60 c 0,48,49
 44 60 44 60 36 75 c 128,-1,50
 28 90 28 90 28 142 c 0,51,52
 28 201 28 201 46 441 c 0,0,1
EndSplineSet
Validated: 1
EndChar

StartChar: i
Encoding: 105 105 58
Width: 185
GlyphClass: 2
Flags: W
LayerCount: 2
Fore
SplineSet
80 567 m 0,0,1
 85 583 85 583 96 583 c 0,2,3
 106 583 106 583 132 571 c 0,4,5
 166 552 166 552 166 527 c 0,6,7
 166 517 166 517 161 502 c 0,8,9
 148 462 148 462 136 269 c 0,10,11
 130 126 130 126 123 82.5 c 128,-1,12
 116 39 116 39 98 39 c 0,13,14
 88 39 88 39 67 50 c 0,15,16
 40 64 40 64 33 97 c 128,-1,17
 26 130 26 130 26 235 c 0,18,19
 26 302 26 302 32.5 370.5 c 128,-1,20
 39 439 39 439 48 469 c 0,21,22
 53 485 53 485 65 522 c 128,-1,23
 77 559 77 559 80 567 c 0,0,1
EndSplineSet
Validated: 1
EndChar

StartChar: j
Encoding: 106 106 59
Width: 395
GlyphClass: 2
Flags: W
LayerCount: 2
Fore
SplineSet
72 559 m 0,0,1
 78 564 78 564 125.5 568 c 128,-1,2
 173 572 173 572 231 572 c 0,3,4
 274 572 274 572 296.5 571 c 128,-1,5
 319 570 319 570 337 568 c 128,-1,6
 355 566 355 566 362 560 c 128,-1,7
 369 554 369 554 372 546.5 c 128,-1,8
 375 539 375 539 375 525 c 0,9,10
 375 504 375 504 362.5 487.5 c 128,-1,11
 350 471 350 471 331 466 c 0,12,13
 314 461 314 461 306 449 c 128,-1,14
 298 437 298 437 294 406 c 128,-1,15
 290 375 290 375 290 311 c 0,16,17
 290 289 290 289 291 259 c 0,18,19
 291 242 291 242 291 228 c 0,20,21
 291 157 291 157 287 112 c 128,-1,22
 283 67 283 67 274 35 c 128,-1,23
 265 3 265 3 246.5 -12.5 c 128,-1,24
 228 -28 228 -28 204 -34.5 c 128,-1,25
 180 -41 180 -41 141 -41 c 0,26,27
 67 -41 67 -41 27.5 -19.5 c 128,-1,28
 -12 2 -12 2 -12 43 c 0,29,30
 -12 57 -12 57 5 64.5 c 128,-1,31
 22 72 22 72 47 72 c 0,32,33
 91 72 91 72 122 52 c 0,34,35
 137 43 137 43 149 43 c 0,36,37
 213 43 213 43 216 284 c 0,38,39
 216 332 216 332 215.5 356.5 c 128,-1,40
 215 381 215 381 212.5 404.5 c 128,-1,41
 210 428 210 428 207.5 436 c 128,-1,42
 205 444 205 444 197.5 451 c 128,-1,43
 190 458 190 458 182.5 458.5 c 128,-1,44
 175 459 175 459 159 459 c 0,45,46
 126 459 126 459 95.5 486.5 c 128,-1,47
 65 514 65 514 65 539 c 0,48,49
 65 551 65 551 72 559 c 0,0,1
EndSplineSet
Validated: 1
EndChar

StartChar: k
Encoding: 107 107 60
Width: 471
GlyphClass: 2
Flags: W
LayerCount: 2
Fore
SplineSet
70 661 m 0,0,1
 79 670 79 670 104 670 c 0,2,3
 111 670 111 670 118 670 c 0,4,5
 132 666 132 666 138 650 c 128,-1,6
 144 634 144 634 144 594 c 0,7,8
 144 574 144 574 143 543 c 0,9,10
 141 518 141 518 141 496 c 0,11,12
 141 424 141 424 153 424 c 0,13,14
 159 424 159 424 196 455.5 c 128,-1,15
 233 487 233 487 276 530 c 0,16,17
 318 571 318 571 354.5 597.5 c 128,-1,18
 391 624 391 624 404 624 c 0,19,20
 406 624 406 624 407 624 c 0,21,22
 420 615 420 615 420 600 c 0,23,24
 420 559 420 559 324 472 c 2,25,-1
 245 401 l 1,26,-1
 305 337 l 2,27,28
 331 309 331 309 356.5 273.5 c 128,-1,29
 382 238 382 238 392 214 c 0,30,31
 403 189 403 189 415.5 171.5 c 128,-1,32
 428 154 428 154 434 154 c 0,33,34
 441 154 441 154 446 142 c 128,-1,35
 451 130 451 130 451 112 c 0,36,37
 451 67 451 67 427 67 c 0,38,39
 406 67 406 67 375 100 c 128,-1,40
 344 133 344 133 313 191 c 0,41,42
 279 254 279 254 252.5 283.5 c 128,-1,43
 226 313 226 313 201 316 c 0,44,45
 191 318 191 318 183 318 c 0,46,47
 145 318 145 318 131.5 279 c 128,-1,48
 118 240 118 240 118 139 c 0,49,50
 118 60 118 60 110 31 c 128,-1,51
 102 2 102 2 78 -11 c 0,52,53
 59 -22 59 -22 40 -22 c 0,54,55
 31 -22 31 -22 26 -19 c 0,56,57
 13 -6 13 -6 13 39 c 0,58,59
 13 67 13 67 19 91.5 c 128,-1,60
 25 116 25 116 34 122 c 0,61,62
 44 129 44 129 49.5 204 c 128,-1,63
 55 279 55 279 55 391 c 0,64,65
 55 497 55 497 59.5 576 c 128,-1,66
 64 655 64 655 70 661 c 0,0,1
EndSplineSet
Validated: 1
EndChar

StartChar: l
Encoding: 108 108 61
Width: 401
GlyphClass: 2
Flags: W
LayerCount: 2
Fore
SplineSet
87 617 m 0,0,1
 92 623 92 623 107 628 c 128,-1,2
 122 633 122 633 139 633 c 0,3,4
 159 633 159 633 168 624 c 128,-1,5
 177 615 177 615 177 592 c 0,6,7
 177 561 177 561 160 481 c 0,8,9
 133 360 133 360 116 255.5 c 128,-1,10
 99 151 99 151 99 115 c 0,11,12
 99 102 99 102 101 100 c 0,13,14
 105 95 105 95 113 95 c 0,15,16
 126 95 126 95 141 104 c 0,17,18
 166 122 166 122 237 146 c 0,19,20
 274 160 274 160 294 160 c 0,21,22
 318 160 318 160 349 135 c 0,23,24
 379 111 379 111 379 86 c 0,25,26
 379 72 379 72 368.5 63.5 c 128,-1,27
 358 55 358 55 340 55 c 0,28,29
 329 55 329 55 316 58 c 0,30,31
 308 60 308 60 293 60 c 0,32,33
 240 60 240 60 172 40 c 0,34,35
 97 17 97 17 69 17 c 0,36,37
 40 17 40 17 29 36 c 128,-1,38
 18 55 18 55 18 101 c 0,39,40
 18 134 18 134 24 204 c 0,41,42
 29 270 29 270 38 330.5 c 128,-1,43
 47 391 47 391 53 404 c 0,44,45
 59 418 59 418 65 452 c 128,-1,46
 71 486 71 486 72 517 c 0,47,48
 76 599 76 599 87 617 c 0,0,1
EndSplineSet
Validated: 1
EndChar

StartChar: m
Encoding: 109 109 62
Width: 504
GlyphClass: 2
Flags: W
LayerCount: 2
Fore
SplineSet
320 546 m 0,0,1
 365 611 365 611 395 611 c 0,2,3
 429 611 429 611 448 529.5 c 128,-1,4
 467 448 467 448 474 275 c 0,5,6
 478 192 478 192 478 146 c 0,7,8
 478 92 478 92 472.5 69 c 128,-1,9
 467 46 467 46 455 42 c 0,10,11
 446 38 446 38 440 38 c 0,12,13
 415 38 415 38 405.5 86.5 c 128,-1,14
 396 135 396 135 393 264 c 0,15,16
 393 338 393 338 388 396 c 128,-1,17
 383 454 383 454 376 460 c 0,18,19
 374 463 374 463 370 463 c 0,20,21
 352 463 352 463 316 429 c 0,22,23
 271 386 271 386 244 386 c 0,24,25
 222 386 222 386 197 414 c 0,26,27
 174 442 174 442 161 442 c 256,28,29
 148 442 148 442 142 409 c 128,-1,30
 136 376 136 376 136 300 c 0,31,32
 136 272 136 272 137 235 c 0,33,34
 137 208 137 208 137 185 c 0,35,36
 137 -13 137 -13 97 -13 c 0,37,38
 85 -13 85 -13 68 4 c 0,39,40
 41 31 41 31 35 287 c 0,41,42
 32 372 32 372 32 420 c 0,43,44
 32 494 32 494 38 525.5 c 128,-1,45
 44 557 44 557 60 569 c 0,46,47
 74 580 74 580 86 580 c 0,48,49
 100 580 100 580 119.5 568 c 128,-1,50
 139 556 139 556 176 527 c 0,51,52
 248 468 248 468 264 468 c 0,53,54
 265 468 265 468 266 469 c 0,55,56
 274 477 274 477 320 546 c 0,0,1
EndSplineSet
Validated: 1
EndChar

StartChar: n
Encoding: 110 110 63
Width: 475
GlyphClass: 2
Flags: W
LayerCount: 2
Fore
SplineSet
351 588 m 0,0,1
 359 601 359 601 373 601 c 0,2,3
 386 601 386 601 407 591 c 0,4,5
 426 580 426 580 433.5 560 c 128,-1,6
 441 540 441 540 444 495.5 c 128,-1,7
 447 451 447 451 447 345 c 0,8,9
 445 224 445 224 438 164.5 c 128,-1,10
 431 105 431 105 415 83 c 0,11,12
 395 56 395 56 367 56 c 0,13,14
 348 56 348 56 331.5 69 c 128,-1,15
 315 82 315 82 305 106 c 0,16,17
 290 142 290 142 207 278 c 2,18,-1
 124 412 l 1,19,-1
 118 324 l 2,20,21
 117 309 117 309 117 292 c 0,22,23
 117 215 117 215 132 160 c 0,24,25
 143 120 143 120 143 96 c 0,26,27
 143 70 143 70 130 56 c 0,28,29
 106 26 106 26 91 26 c 0,30,31
 72 26 72 26 61.5 74 c 128,-1,32
 51 122 51 122 43 233 c 0,33,34
 37 333 37 333 26 487 c 0,35,36
 25 498 25 498 25 506 c 0,37,38
 25 525 25 525 36 533.5 c 128,-1,39
 47 542 47 542 74 545 c 0,40,41
 82 546 82 546 89 546 c 0,42,43
 118 546 118 546 143 516 c 128,-1,44
 168 486 168 486 230 383 c 0,45,46
 313 246 313 246 337 246 c 0,47,48
 356 246 356 246 356 311 c 0,49,50
 356 352 356 352 349 428 c 0,51,52
 345 473 345 473 345 517 c 0,53,54
 345 577 345 577 351 588 c 0,0,1
EndSplineSet
Validated: 1
EndChar

StartChar: o
Encoding: 111 111 64
Width: 487
GlyphClass: 2
Flags: W
LayerCount: 2
Fore
SplineSet
125 566 m 0,0,1
 150 601 150 601 167.5 615 c 128,-1,2
 185 629 185 629 206 629 c 0,3,4
 233 629 233 629 294 599 c 0,5,6
 373 560 373 560 418 489.5 c 128,-1,7
 463 419 463 419 463 333 c 0,8,9
 463 294 463 294 460.5 275 c 128,-1,10
 458 256 458 256 443 229.5 c 128,-1,11
 428 203 428 203 408 181 c 128,-1,12
 388 159 388 159 340 110 c 0,13,14
 287 60 287 60 243 23.5 c 128,-1,15
 199 -13 199 -13 188 -13 c 0,16,17
 175 -13 175 -13 146.5 4.5 c 128,-1,18
 118 22 118 22 88 48 c 0,19,20
 59 71 59 71 47 83.5 c 128,-1,21
 35 96 35 96 26 118.5 c 128,-1,22
 17 141 17 141 16 165 c 128,-1,23
 15 189 15 189 15 241 c 0,24,25
 15 345 15 345 37 410 c 128,-1,26
 59 475 59 475 125 566 c 0,0,1
311 472 m 0,27,28
 288 495 288 495 262 512 c 128,-1,29
 236 529 236 529 225 529 c 0,30,31
 199 529 199 529 164 489 c 128,-1,32
 129 449 129 449 129 418 c 0,33,34
 129 404 129 404 123.5 390.5 c 128,-1,35
 118 377 118 377 109 373 c 0,36,37
 88 361 88 361 88 284 c 0,38,39
 88 196 88 196 113 144 c 0,40,41
 136 94 136 94 177 94 c 0,42,43
 227 94 227 94 298 166 c 0,44,45
 372 244 372 244 372 332 c 0,46,47
 372 411 372 411 311 472 c 0,27,28
EndSplineSet
Validated: 1
EndChar

StartChar: p
Encoding: 112 112 65
Width: 475
GlyphClass: 2
Flags: W
LayerCount: 2
Fore
SplineSet
137 633 m 0,0,1
 171 641 171 641 217 641 c 0,2,3
 267 641 267 641 312 632 c 128,-1,4
 357 623 357 623 376 608 c 0,5,6
 404 586 404 586 435 521.5 c 128,-1,7
 466 457 466 457 466 420 c 0,8,9
 466 405 466 405 449 376.5 c 128,-1,10
 432 348 432 348 409 325 c 0,11,12
 375 290 375 290 344 280 c 128,-1,13
 313 270 313 270 243 270 c 2,14,-1
 132 270 l 1,15,-1
 132 162 l 2,16,17
 132 103 132 103 125 76 c 128,-1,18
 118 49 118 49 99 41 c 0,19,20
 82 36 82 36 66 36 c 0,21,22
 54 36 54 36 49 39 c 0,23,24
 35 48 35 48 35 277 c 0,25,26
 35 397 35 397 40 496 c 128,-1,27
 45 595 45 595 53 604 c 0,28,29
 60 609 60 609 85 618 c 128,-1,30
 110 627 110 627 137 633 c 0,0,1
314 539 m 0,31,32
 293 553 293 553 261 561.5 c 128,-1,33
 229 570 229 570 199 570 c 0,34,35
 160 570 160 570 147 556 c 0,36,37
 132 542 132 542 132 484 c 0,38,39
 132 447 132 447 139 412.5 c 128,-1,40
 146 378 146 378 157 366 c 0,41,42
 182 341 182 341 251 341 c 0,43,44
 288 341 288 341 318 350 c 128,-1,45
 348 359 348 359 357 375 c 0,46,47
 369 396 369 396 369 425 c 0,48,49
 369 457 369 457 354 489 c 128,-1,50
 339 521 339 521 314 539 c 0,31,32
EndSplineSet
Validated: 1
EndChar

StartChar: q
Encoding: 113 113 66
Width: 491
GlyphClass: 2
Flags: W
LayerCount: 2
Fore
SplineSet
149 597 m 0,0,1
 179 630 179 630 207 630 c 0,2,3
 233 630 233 630 297 599 c 0,4,5
 375 561 375 561 421 485.5 c 128,-1,6
 467 410 467 410 467 329 c 0,7,8
 467 252 467 252 424 196 c 0,9,10
 384 146 384 146 384 117 c 0,11,12
 384 95 384 95 409 85 c 0,13,14
 423 79 423 79 423 72 c 256,15,16
 423 65 423 65 407 48 c 0,17,18
 390 29 390 29 382 29 c 256,19,20
 374 29 374 29 361 50 c 0,21,22
 351 66 351 66 336 66 c 0,23,24
 318 66 318 66 255 33 c 2,25,-1
 168 -13 l 1,26,-1
 99 39 l 2,27,28
 55 73 55 73 32.5 128 c 128,-1,29
 10 183 10 183 10 251 c 0,30,31
 10 338 10 338 46 430 c 128,-1,32
 82 522 82 522 149 597 c 0,0,1
307 477 m 0,33,34
 286 498 286 498 262.5 513.5 c 128,-1,35
 239 529 239 529 228 529 c 0,36,37
 202 529 202 529 167 489 c 128,-1,38
 132 449 132 449 132 418 c 0,39,40
 132 404 132 404 126.5 390.5 c 128,-1,41
 121 377 121 377 112 373 c 0,42,43
 91 361 91 361 91 284 c 0,44,45
 91 196 91 196 116 144 c 0,46,47
 127 119 127 119 147 105.5 c 128,-1,48
 167 92 167 92 191 92 c 0,49,50
 231 92 231 92 259 127 c 0,51,52
 277 147 277 147 277 156 c 0,53,54
 277 164 277 164 262 168 c 0,55,56
 244 175 244 175 244 186 c 256,57,58
 244 197 244 197 263 206.5 c 128,-1,59
 282 216 282 216 309 216 c 0,60,61
 338 216 338 216 351 229.5 c 128,-1,62
 364 243 364 243 372 279 c 0,63,64
 378 307 378 307 378 331 c 0,65,66
 378 406 378 406 307 477 c 0,33,34
EndSplineSet
Validated: 1
EndChar

StartChar: r
Encoding: 114 114 67
Width: 473
GlyphClass: 2
Flags: W
LayerCount: 2
Fore
SplineSet
101 614 m 0,0,1
 145 638 145 638 185 638 c 0,2,3
 186 638 186 638 187 638 c 0,4,5
 232 638 232 638 316 592 c 128,-1,6
 400 546 400 546 425 508 c 0,7,8
 443 480 443 480 443 445 c 0,9,10
 443 411 443 411 426 378.5 c 128,-1,11
 409 346 409 346 379 322 c 0,12,13
 333 284 333 284 333 258 c 0,14,15
 333 238 333 238 361 228 c 0,16,17
 391 213 391 213 391 190 c 0,18,19
 391 163 391 163 409 156 c 0,20,21
 416 155 416 155 426.5 136 c 128,-1,22
 437 117 437 117 443 94 c 0,23,24
 449 68 449 68 449 57 c 0,25,26
 449 42 449 42 435 42 c 0,27,28
 429 42 429 42 419 44 c 0,29,30
 404 47 404 47 379.5 69 c 128,-1,31
 355 91 355 91 337 118 c 0,32,33
 303 169 303 169 235.5 217.5 c 128,-1,34
 168 266 168 266 136 266 c 0,35,36
 125 266 125 266 121 260 c 0,37,38
 115 251 115 251 115 220.5 c 128,-1,39
 115 190 115 190 121 156 c 0,40,41
 125 131 125 131 125 111 c 0,42,43
 125 50 125 50 86 50 c 0,44,45
 69 50 69 50 45 62 c 0,46,47
 20 76 20 76 20 88 c 0,48,49
 20 97 20 97 31 110 c 0,50,51
 50 132 50 132 50 279 c 0,52,53
 50 315 50 315 49 358 c 0,54,55
 47 423 47 423 47 483 c 0,56,57
 47 580 47 580 51 584 c 0,58,59
 53 585 53 585 70.5 595.5 c 128,-1,60
 88 606 88 606 101 614 c 0,0,1
329 492 m 0,61,62
 303 519 303 519 274.5 529.5 c 128,-1,63
 246 540 246 540 197 540 c 2,64,-1
 109 540 l 1,65,-1
 115 456 l 2,66,67
 119 401 119 401 130.5 384 c 128,-1,68
 142 367 142 367 181 356 c 0,69,70
 218 346 218 346 251 346 c 0,71,72
 301 346 301 346 332 367 c 128,-1,73
 363 388 363 388 363 422 c 256,74,75
 363 456 363 456 329 492 c 0,61,62
EndSplineSet
Validated: 1
EndChar

StartChar: s
Encoding: 115 115 68
Width: 417
GlyphClass: 2
Flags: W
LayerCount: 2
Fore
SplineSet
192 638 m 0,0,1
 211 641 211 641 224 641 c 0,2,3
 247 641 247 641 267.5 629.5 c 128,-1,4
 288 618 288 618 325 585 c 0,5,6
 372 543 372 543 372 497 c 0,7,8
 372 473 372 473 356 458 c 0,9,10
 355 457 355 457 352 457 c 0,11,12
 342 457 342 457 321 471.5 c 128,-1,13
 300 486 300 486 277 508 c 2,14,-1
 213 571 l 1,15,-1
 165 521 l 2,16,17
 124 479 124 479 124 444 c 0,18,19
 124 421 124 421 142 406 c 128,-1,20
 160 391 160 391 194 388 c 0,21,22
 323 375 323 375 381 288 c 0,23,24
 401 257 401 257 401 238 c 256,25,26
 401 219 401 219 381 181 c 0,27,28
 308 31 308 31 167 25 c 0,29,30
 163 25 163 25 158 25 c 0,31,32
 92 25 92 25 54.5 48 c 128,-1,33
 17 71 17 71 17 112 c 0,34,35
 17 161 17 161 43 161 c 0,36,37
 60 161 60 161 92 142 c 0,38,39
 125 119 125 119 167 119 c 0,40,41
 205 119 205 119 238 137 c 128,-1,42
 271 155 271 155 288 185 c 0,43,44
 302 212 302 212 302 233 c 0,45,46
 302 290 302 290 179 306 c 0,47,48
 143 311 143 311 109 325.5 c 128,-1,49
 75 340 75 340 63 356 c 0,50,51
 42 384 42 384 42 426 c 0,52,53
 42 495 42 495 87.5 561.5 c 128,-1,54
 133 628 133 628 192 638 c 0,0,1
EndSplineSet
Validated: 1
EndChar

StartChar: t
Encoding: 116 116 69
Width: 480
GlyphClass: 2
Flags: W
LayerCount: 2
Fore
SplineSet
-6 612 m 256,0,1
 0 627 0 627 24 632.5 c 128,-1,2
 48 638 48 638 112 638 c 0,3,4
 153 638 153 638 230 636 c 0,5,6
 298 633 298 633 333.5 631 c 128,-1,7
 369 629 369 629 397.5 626 c 128,-1,8
 426 623 426 623 436.5 618 c 128,-1,9
 447 613 447 613 451.5 606.5 c 128,-1,10
 456 600 456 600 456 588 c 0,11,12
 456 565 456 565 439 556 c 128,-1,13
 422 547 422 547 372 544 c 2,14,-1
 290 538 l 1,15,-1
 278 374 l 2,16,17
 267 202 267 202 260 140 c 0,18,19
 257 97 257 97 247 82 c 128,-1,20
 237 67 237 67 208 64 c 2,21,-1
 160 56 l 1,22,-1
 176 224 l 2,23,24
 190 381 190 381 194 470 c 2,25,-1
 196 548 l 1,26,-1
 104 542 l 2,27,28
 92 542 92 542 81 542 c 0,29,30
 -12 542 -12 542 -12 585 c 0,31,32
 -12 597 -12 597 -6 612 c 256,0,1
EndSplineSet
Validated: 1
EndChar

StartChar: u
Encoding: 117 117 70
Width: 449
GlyphClass: 2
Flags: W
LayerCount: 2
Fore
SplineSet
337 626 m 0,0,1
 339 641 339 641 357 641 c 0,2,3
 372 641 372 641 390.5 629.5 c 128,-1,4
 409 618 409 618 419 600 c 0,5,6
 426 586 426 586 426 540 c 0,7,8
 426 465 426 465 410.5 368 c 128,-1,9
 395 271 395 271 377 252 c 0,10,11
 359 230 359 230 359 190 c 0,12,13
 359 173 359 173 342 141 c 128,-1,14
 325 109 325 109 303 82 c 0,15,16
 275 49 275 49 257.5 36 c 128,-1,17
 240 23 240 23 221 23 c 0,18,19
 211 23 211 23 197 26 c 0,20,21
 110 48 110 48 64.5 121 c 128,-1,22
 19 194 19 194 19 310 c 0,23,24
 19 394 19 394 43 496 c 0,25,26
 58 557 58 557 69 576.5 c 128,-1,27
 80 596 80 596 100 596 c 0,28,29
 104 596 104 596 109 596 c 0,30,31
 143 591 143 591 143 564 c 0,32,33
 143 558 143 558 141 550 c 0,34,35
 132 499 132 499 125 344 c 0,36,37
 122 296 122 296 122 263 c 0,38,39
 122 179 122 179 141 149.5 c 128,-1,40
 160 120 160 120 209 120 c 0,41,42
 235 120 235 120 249.5 137.5 c 128,-1,43
 264 155 264 155 279 206 c 0,44,45
 305 292 305 292 323 342 c 0,46,47
 339 391 339 391 339 483 c 0,48,49
 339 493 339 493 339 502 c 0,50,51
 337 562 337 562 337 626 c 0,0,1
EndSplineSet
Validated: 1
EndChar

StartChar: v
Encoding: 118 118 71
Width: 399
GlyphClass: 2
Flags: W
LayerCount: 2
Fore
SplineSet
9 600 m 0,0,1
 20 617 20 617 45 617 c 0,2,3
 50 617 50 617 55 616 c 0,4,5
 81 611 81 611 108.5 530.5 c 128,-1,6
 136 450 136 450 149 336 c 0,7,8
 163 240 163 240 175 240 c 0,9,10
 181 240 181 240 193 267.5 c 128,-1,11
 205 295 205 295 217 336 c 0,12,13
 236 407 236 407 259 470 c 0,14,15
 275 504 275 504 283 550 c 0,16,17
 286 571 286 571 301 583.5 c 128,-1,18
 316 596 316 596 334 596 c 0,19,20
 361 596 361 596 371 570 c 0,21,22
 375 559 375 559 375 547 c 0,23,24
 375 510 375 510 317 396 c 0,25,26
 299 360 299 360 299 322 c 0,27,28
 299 306 299 306 293 290 c 128,-1,29
 287 274 287 274 279 269.5 c 128,-1,30
 271 265 271 265 265 247 c 128,-1,31
 259 229 259 229 259 210 c 0,32,33
 259 190 259 190 253.5 172 c 128,-1,34
 248 154 248 154 239 150 c 0,35,36
 231 145 231 145 225 126.5 c 128,-1,37
 219 108 219 108 219 88 c 0,38,39
 219 62 219 62 213.5 52 c 128,-1,40
 208 42 208 42 192 42 c 0,41,42
 185 42 185 42 175 44 c 0,43,44
 154 47 154 47 140 59.5 c 128,-1,45
 126 72 126 72 123 90 c 0,46,47
 115 135 115 135 99 170 c 0,48,49
 82 207 82 207 71 300 c 0,50,51
 49 514 49 514 15 554 c 0,52,53
 5 568 5 568 5 584 c 0,54,55
 5 593 5 593 9 600 c 0,0,1
EndSplineSet
Validated: 1
EndChar

StartChar: w
Encoding: 119 119 72
Width: 497
GlyphClass: 2
Flags: W
LayerCount: 2
Fore
SplineSet
417 633 m 0,0,1
 431 649 431 649 446 649 c 0,2,3
 451 649 451 649 455 647 c 0,4,5
 473 636 473 636 473 548.5 c 128,-1,6
 473 461 473 461 455 451 c 0,7,8
 448 447 448 447 440 421.5 c 128,-1,9
 432 396 432 396 427 365 c 0,10,11
 411 254 411 254 395.5 196 c 128,-1,12
 380 138 380 138 357 102 c 2,13,-1
 325 56 l 1,14,-1
 289 100 l 2,15,16
 274 117 274 117 263.5 142 c 128,-1,17
 253 167 253 167 253 183 c 0,18,19
 253 217 253 217 238 217 c 0,20,21
 226 217 226 217 212 194 c 128,-1,22
 198 171 198 171 193 137 c 0,23,24
 187 100 187 100 176.5 85 c 128,-1,25
 166 70 166 70 144 70 c 0,26,27
 133 70 133 70 125.5 73.5 c 128,-1,28
 118 77 118 77 110.5 85.5 c 128,-1,29
 103 94 103 94 96 115.5 c 128,-1,30
 89 137 89 137 82 163 c 128,-1,31
 75 189 75 189 65.5 238 c 128,-1,32
 56 287 56 287 46 342 c 128,-1,33
 36 397 36 397 22 483 c 0,34,35
 17 514 17 514 17 546 c 128,-1,36
 17 578 17 578 22 593 c 0,37,38
 31 615 31 615 38 615 c 128,-1,39
 45 615 45 615 68 593 c 0,40,41
 103 557 103 557 116 419 c 0,42,43
 130 261 130 261 153 261 c 0,44,45
 162 261 162 261 175 285 c 0,46,47
 195 319 195 319 224 319 c 0,48,49
 244 319 244 319 263 302.5 c 128,-1,50
 282 286 282 286 295 255 c 2,51,-1
 323 189 l 1,52,-1
 335 269 l 1,53,54
 392 602 392 602 417 633 c 0,0,1
EndSplineSet
Validated: 1
EndChar

StartChar: x
Encoding: 120 120 73
Width: 418
GlyphClass: 2
Flags: W
LayerCount: 2
Fore
SplineSet
38 594 m 0,0,1
 44 599 44 599 53 599 c 0,2,3
 74 599 74 599 101.5 573 c 128,-1,4
 129 547 129 547 144 511 c 0,5,6
 158 481 158 481 177 460.5 c 128,-1,7
 196 440 196 440 208 440 c 0,8,9
 219 440 219 440 219 457 c 0,10,11
 219 479 219 479 269 543 c 128,-1,12
 319 607 319 607 336 607 c 0,13,14
 351 607 351 607 359 597 c 128,-1,15
 367 587 367 587 367 572 c 0,16,17
 367 536 367 536 336 509 c 0,18,19
 319 492 319 492 298.5 464 c 128,-1,20
 278 436 278 436 267 413 c 0,21,22
 247 375 247 375 247 359 c 0,23,24
 247 340 247 340 281 294 c 0,25,26
 322 231 322 231 354 203 c 0,27,28
 399 162 399 162 399 123 c 0,29,30
 399 102 399 102 382 88 c 0,31,32
 374 81 374 81 366 81 c 0,33,34
 354 81 354 81 338.5 96.5 c 128,-1,35
 323 112 323 112 296 150 c 0,36,37
 241 223 241 223 225 255 c 0,38,39
 223 259 223 259 220 259 c 0,40,41
 204 259 204 259 163.5 205 c 128,-1,42
 123 151 123 151 123 127 c 0,43,44
 123 119 123 119 111.5 108 c 128,-1,45
 100 97 100 97 85 88 c 0,46,47
 69 80 69 80 57 80 c 256,48,49
 45 80 45 80 38 88 c 128,-1,50
 31 96 31 96 31 109 c 0,51,52
 31 137 31 137 58 167 c 0,53,54
 72 183 72 183 92 215.5 c 128,-1,55
 112 248 112 248 125 276 c 0,56,57
 148 326 148 326 148 346 c 0,58,59
 148 365 148 365 127 405 c 0,60,61
 114 428 114 428 94.5 453 c 128,-1,62
 75 478 75 478 62 488 c 0,63,64
 45 500 45 500 35.5 519.5 c 128,-1,65
 26 539 26 539 26 559 c 0,66,67
 26 582 26 582 38 594 c 0,0,1
EndSplineSet
Validated: 1
EndChar

StartChar: y
Encoding: 121 121 74
Width: 459
GlyphClass: 2
Flags: W
LayerCount: 2
Fore
SplineSet
347 623 m 0,0,1
 354 641 354 641 368.5 651.5 c 128,-1,2
 383 662 383 662 398 662 c 0,3,4
 414 662 414 662 425 651.5 c 128,-1,5
 436 641 436 641 436 633 c 0,6,7
 436 621 436 621 408.5 579.5 c 128,-1,8
 381 538 381 538 341 490 c 0,9,10
 312 455 312 455 299 439.5 c 128,-1,11
 286 424 286 424 271 401 c 128,-1,12
 256 378 256 378 252.5 368.5 c 128,-1,13
 249 359 249 359 244.5 335.5 c 128,-1,14
 240 312 240 312 240 295.5 c 128,-1,15
 240 279 240 279 240 242 c 0,16,17
 240 183 240 183 237 159 c 128,-1,18
 234 135 234 135 226.5 126 c 128,-1,19
 219 117 219 117 201 117 c 128,-1,20
 183 117 183 117 174.5 127.5 c 128,-1,21
 166 138 166 138 160.5 165.5 c 128,-1,22
 155 193 155 193 149 260 c 0,23,24
 139 351 139 351 125 390.5 c 128,-1,25
 111 430 111 430 70 481 c 0,26,27
 -9 577 -9 577 -9 613 c 0,28,29
 -9 632 -9 632 11 640 c 0,30,31
 13 641 13 641 15 641 c 0,32,33
 43 641 43 641 107 575.5 c 128,-1,34
 171 510 171 510 172 479 c 0,35,36
 172 469 172 469 178.5 461.5 c 128,-1,37
 185 454 185 454 193 454 c 0,38,39
 215 454 215 454 271.5 517 c 128,-1,40
 328 580 328 580 347 623 c 0,0,1
EndSplineSet
Validated: 1
EndChar

StartChar: z
Encoding: 122 122 75
Width: 459
GlyphClass: 2
Flags: W
LayerCount: 2
Fore
SplineSet
15 610 m 0,0,1
 23 628 23 628 133 628 c 0,2,3
 159 628 159 628 188 627 c 0,4,5
 280 625 280 625 319.5 613 c 128,-1,6
 359 601 359 601 359 574 c 256,7,8
 359 547 359 547 321 494 c 0,9,10
 267 416 267 416 229.5 342.5 c 128,-1,11
 192 269 192 269 192 240 c 0,12,13
 192 224 192 224 182.5 205 c 128,-1,14
 173 186 173 186 161 175 c 0,15,16
 145 161 145 161 145 143 c 256,17,18
 145 125 145 125 158.5 111.5 c 128,-1,19
 172 98 172 98 191 98 c 0,20,21
 201 98 201 98 211 102 c 0,22,23
 235 113 235 113 334 133 c 0,24,25
 376 141 376 141 396 141 c 0,26,27
 428 141 428 141 436 119 c 0,28,29
 440 107 440 107 440 97 c 0,30,31
 440 30 440 30 244 25 c 0,32,33
 206 24 206 24 180 24 c 0,34,35
 98 24 98 24 72 40 c 128,-1,36
 46 56 46 56 46 102 c 0,37,38
 46 136 46 136 69.5 192 c 128,-1,39
 93 248 93 248 184 431 c 2,40,-1
 234 529 l 1,41,-1
 142 529 l 2,42,43
 85 529 85 529 47 547 c 128,-1,44
 9 565 9 565 9 591 c 0,45,46
 9 601 9 601 15 610 c 0,0,1
EndSplineSet
Validated: 1
EndChar

StartChar: iacute
Encoding: 237 237 76
Width: 187
GlyphClass: 2
Flags: W
LayerCount: 2
Fore
SplineSet
146 740 m 1,0,-1
 153 750 l 1,1,2
 167 761 167 761 171.5 759.5 c 128,-1,3
 176 758 176 758 180 751 c 128,-1,4
 184 744 184 744 184 738 c 0,5,6
 185 718 185 718 178 684 c 0,7,8
 176 673 176 673 172 664 c 0,9,10
 170 659 170 659 166 640 c 0,11,12
 164 631 164 631 150 630 c 0,13,14
 133 629 133 629 122 652 c 0,15,16
 113 675 113 675 122 696 c 2,17,-1
 142 734 l 1,18,-1
 146 740 l 1,0,-1
80 567 m 0,19,20
 85 583 85 583 96 583 c 0,21,22
 106 583 106 583 132 571 c 0,23,24
 166 552 166 552 166 527 c 0,25,26
 166 517 166 517 161 502 c 0,27,28
 148 462 148 462 136 269 c 0,29,30
 130 126 130 126 123 82.5 c 128,-1,31
 116 39 116 39 98 39 c 0,32,33
 88 39 88 39 67 50 c 0,34,35
 40 64 40 64 33 97 c 128,-1,36
 26 130 26 130 26 235 c 0,37,38
 26 302 26 302 32.5 370.5 c 128,-1,39
 39 439 39 439 48 469 c 0,40,41
 53 485 53 485 65 522 c 128,-1,42
 77 559 77 559 80 567 c 0,19,20
EndSplineSet
Validated: 33
EndChar

StartChar: oacute
Encoding: 243 243 77
Width: 487
GlyphClass: 2
Flags: W
LayerCount: 2
Fore
SplineSet
332 789 m 1,0,-1
 330 786 l 2,1,2
 330 785 330 785 318 762 c 0,3,4
 310 746 310 746 304.5 732 c 128,-1,5
 299 718 299 718 296 703 c 0,6,7
 292 679 292 679 292 670 c 0,8,9
 292 667 292 667 293 662.5 c 128,-1,10
 294 658 294 658 294 655 c 0,11,12
 294 649 294 649 305 644.5 c 128,-1,13
 316 640 316 640 324 640 c 1,14,15
 334 647 334 647 342 658 c 0,16,17
 352 675 352 675 353 678 c 0,18,19
 355 687 355 687 364 703 c 128,-1,20
 373 719 373 719 374 727 c 0,21,22
 376 745 376 745 374 766 c 0,23,24
 373 775 373 775 360 783.5 c 128,-1,25
 347 792 347 792 338 792 c 2,26,-1
 335 791 l 1,27,-1
 332 789 l 1,0,-1
125 566 m 0,28,29
 150 601 150 601 167.5 615 c 128,-1,30
 185 629 185 629 206 629 c 0,31,32
 233 629 233 629 294 599 c 0,33,34
 373 560 373 560 418 489.5 c 128,-1,35
 463 419 463 419 463 333 c 0,36,37
 463 294 463 294 460.5 275 c 128,-1,38
 458 256 458 256 443 229.5 c 128,-1,39
 428 203 428 203 408 181 c 128,-1,40
 388 159 388 159 340 110 c 0,41,42
 287 60 287 60 243 23.5 c 128,-1,43
 199 -13 199 -13 188 -13 c 0,44,45
 175 -13 175 -13 146.5 4.5 c 128,-1,46
 118 22 118 22 88 48 c 0,47,48
 59 71 59 71 47 83.5 c 128,-1,49
 35 96 35 96 26 118.5 c 128,-1,50
 17 141 17 141 16 165 c 128,-1,51
 15 189 15 189 15 241 c 0,52,53
 15 345 15 345 37 410 c 128,-1,54
 59 475 59 475 125 566 c 0,28,29
311 472 m 0,55,56
 288 495 288 495 262 512 c 128,-1,57
 236 529 236 529 225 529 c 0,58,59
 199 529 199 529 164 489 c 128,-1,60
 129 449 129 449 129 418 c 0,61,62
 129 404 129 404 123.5 390.5 c 128,-1,63
 118 377 118 377 109 373 c 0,64,65
 88 361 88 361 88 284 c 0,66,67
 88 196 88 196 113 144 c 0,68,69
 136 94 136 94 177 94 c 0,70,71
 227 94 227 94 298 166 c 0,72,73
 372 244 372 244 372 332 c 0,74,75
 372 411 372 411 311 472 c 0,55,56
EndSplineSet
Validated: 41
EndChar

StartChar: Oacute
Encoding: 211 211 78
Width: 487
Flags: W
LayerCount: 2
Fore
SplineSet
332 789 m 1,0,-1
 330 786 l 2,1,2
 330 785 330 785 318 762 c 0,3,4
 310 746 310 746 304.5 732 c 128,-1,5
 299 718 299 718 296 703 c 0,6,7
 292 679 292 679 292 670 c 0,8,9
 292 667 292 667 293 662.5 c 128,-1,10
 294 658 294 658 294 655 c 0,11,12
 294 649 294 649 305 644.5 c 128,-1,13
 316 640 316 640 324 640 c 1,14,15
 334 647 334 647 342 658 c 0,16,17
 352 675 352 675 353 678 c 0,18,19
 355 687 355 687 364 703 c 128,-1,20
 373 719 373 719 374 727 c 0,21,22
 376 745 376 745 374 766 c 0,23,24
 373 775 373 775 360 783.5 c 128,-1,25
 347 792 347 792 338 792 c 2,26,-1
 335 791 l 1,27,-1
 332 789 l 1,0,-1
125 566 m 0,28,29
 150 601 150 601 167.5 615 c 128,-1,30
 185 629 185 629 206 629 c 0,31,32
 233 629 233 629 294 599 c 0,33,34
 373 560 373 560 418 489.5 c 128,-1,35
 463 419 463 419 463 333 c 0,36,37
 463 294 463 294 460.5 275 c 128,-1,38
 458 256 458 256 443 229.5 c 128,-1,39
 428 203 428 203 408 181 c 128,-1,40
 388 159 388 159 340 110 c 0,41,42
 287 60 287 60 243 23.5 c 128,-1,43
 199 -13 199 -13 188 -13 c 0,44,45
 175 -13 175 -13 146.5 4.5 c 128,-1,46
 118 22 118 22 88 48 c 0,47,48
 59 71 59 71 47 83.5 c 128,-1,49
 35 96 35 96 26 118.5 c 128,-1,50
 17 141 17 141 16 165 c 128,-1,51
 15 189 15 189 15 241 c 0,52,53
 15 345 15 345 37 410 c 128,-1,54
 59 475 59 475 125 566 c 0,28,29
311 472 m 0,55,56
 288 495 288 495 262 512 c 128,-1,57
 236 529 236 529 225 529 c 0,58,59
 199 529 199 529 164 489 c 128,-1,60
 129 449 129 449 129 418 c 0,61,62
 129 404 129 404 123.5 390.5 c 128,-1,63
 118 377 118 377 109 373 c 0,64,65
 88 361 88 361 88 284 c 0,66,67
 88 196 88 196 113 144 c 0,68,69
 136 94 136 94 177 94 c 0,70,71
 227 94 227 94 298 166 c 0,72,73
 372 244 372 244 372 332 c 0,74,75
 372 411 372 411 311 472 c 0,55,56
EndSplineSet
Validated: 41
EndChar

StartChar: Iacute
Encoding: 205 205 79
Width: 187
Flags: W
LayerCount: 2
Fore
SplineSet
146 740 m 1,0,-1
 153 750 l 1,1,2
 167 761 167 761 171.5 759.5 c 128,-1,3
 176 758 176 758 180 751 c 128,-1,4
 184 744 184 744 184 738 c 0,5,6
 185 718 185 718 178 684 c 0,7,8
 176 673 176 673 172 664 c 0,9,10
 170 659 170 659 166 640 c 0,11,12
 164 631 164 631 150 630 c 0,13,14
 133 629 133 629 122 652 c 0,15,16
 113 675 113 675 122 696 c 2,17,-1
 142 734 l 1,18,-1
 146 740 l 1,0,-1
80 567 m 0,19,20
 85 583 85 583 96 583 c 0,21,22
 106 583 106 583 132 571 c 0,23,24
 166 552 166 552 166 527 c 0,25,26
 166 517 166 517 161 502 c 0,27,28
 148 462 148 462 136 269 c 0,29,30
 130 126 130 126 123 82.5 c 128,-1,31
 116 39 116 39 98 39 c 0,32,33
 88 39 88 39 67 50 c 0,34,35
 40 64 40 64 33 97 c 128,-1,36
 26 130 26 130 26 235 c 0,37,38
 26 302 26 302 32.5 370.5 c 128,-1,39
 39 439 39 439 48 469 c 0,40,41
 53 485 53 485 65 522 c 128,-1,42
 77 559 77 559 80 567 c 0,19,20
EndSplineSet
Validated: 33
EndChar

StartChar: aacute
Encoding: 225 225 80
Width: 454
Flags: W
LayerCount: 2
Fore
SplineSet
308 781 m 5,0,1
 305 779 305 779 297.5 775.5 c 128,-1,2
 290 772 290 772 287 770 c 0,3,4
 276 762 276 762 272 757 c 0,5,6
 271 756 271 756 265 747.5 c 0,7,8
 263 745 263 745 258 734 c 0,9,10
 243 702 243 702 241 691 c 0,11,12
 237 669 237 669 238 662 c 0,13,14
 239 654 239 654 246 648.5 c 0,15,16
 251 645 251 645 263 644 c 0,17,18
 279 643 279 643 287 651 c 0,19,20
 290 654 290 654 297 658.5 c 128,-1,21
 304 663 304 663 306 666 c 0,22,23
 321 680 321 680 323 685 c 0,24,25
 324 688 324 688 328 694.5 c 128,-1,26
 332 701 332 701 333 705 c 0,27,28
 347 731 347 731 349 747 c 0,29,30
 353 785 353 785 321 785 c 2,31,-1
 316 785 l 1,32,-1
 308 781 l 5,0,1
128 527 m 0,33,34
 145 554 145 554 166.5 574.5 c 128,-1,35
 188 595 188 595 200 595 c 0,36,37
 246 595 246 595 301 496 c 128,-1,38
 356 397 356 397 393 268.5 c 128,-1,39
 430 140 430 140 430 53 c 0,40,41
 430 -28 430 -28 394 -36 c 0,42,43
 389 -37 389 -37 386 -37 c 0,44,45
 368 -37 368 -37 358.5 -19.5 c 128,-1,46
 349 -2 349 -2 341 43 c 0,47,48
 337 65 337 65 334 82.5 c 128,-1,49
 331 100 331 100 328.5 115 c 128,-1,50
 326 130 326 130 323 141 c 128,-1,51
 320 152 320 152 317 161 c 128,-1,52
 314 170 314 170 310.5 176 c 128,-1,53
 307 182 307 182 303 185.5 c 128,-1,54
 299 189 299 189 294 190.5 c 128,-1,55
 289 192 289 192 282 192 c 0,56,57
 268 192 268 192 210 175 c 0,58,59
 114 148 114 148 107 105 c 0,60,61
 94 13 94 13 80.5 -14 c 128,-1,62
 67 -41 67 -41 35 -41 c 0,63,64
 -11 -41 -11 -41 -11 23 c 0,65,66
 -11 65 -11 65 10 132 c 256,67,68
 31 199 31 199 60 327 c 0,69,70
 69 380 69 380 89.5 438.5 c 128,-1,71
 110 497 110 497 128 527 c 0,33,34
273 373 m 0,72,73
 262 417 262 417 246.5 440.5 c 128,-1,74
 231 464 231 464 215 464 c 0,75,76
 192 464 192 464 175 420 c 0,77,78
 133 311 133 311 133 281 c 0,79,80
 133 266 133 266 140.5 260.5 c 128,-1,81
 148 255 148 255 164 255 c 0,82,83
 214 255 214 255 245 281 c 128,-1,84
 276 307 276 307 276 348 c 0,85,86
 276 360 276 360 273 373 c 0,72,73
EndSplineSet
Validated: 41
EndChar

StartChar: Aacute
Encoding: 193 193 81
Width: 454
Flags: W
LayerCount: 2
Fore
SplineSet
308 781 m 5,0,1
 305 779 305 779 297.5 775.5 c 128,-1,2
 290 772 290 772 287 770 c 0,3,4
 276 762 276 762 272 757 c 0,5,6
 271 756 271 756 265 747.5 c 0,7,8
 263 745 263 745 258 734 c 0,9,10
 243 702 243 702 241 691 c 0,11,12
 237 669 237 669 238 662 c 0,13,14
 239 654 239 654 246 648.5 c 0,15,16
 251 645 251 645 263 644 c 0,17,18
 279 643 279 643 287 651 c 0,19,20
 290 654 290 654 297 658.5 c 128,-1,21
 304 663 304 663 306 666 c 0,22,23
 321 680 321 680 323 685 c 0,24,25
 324 688 324 688 328 694.5 c 128,-1,26
 332 701 332 701 333 705 c 0,27,28
 347 731 347 731 349 747 c 0,29,30
 353 785 353 785 321 785 c 2,31,-1
 316 785 l 1,32,-1
 308 781 l 5,0,1
128 527 m 0,33,34
 145 554 145 554 166.5 574.5 c 128,-1,35
 188 595 188 595 200 595 c 0,36,37
 246 595 246 595 301 496 c 128,-1,38
 356 397 356 397 393 268.5 c 128,-1,39
 430 140 430 140 430 53 c 0,40,41
 430 -28 430 -28 394 -36 c 0,42,43
 389 -37 389 -37 386 -37 c 0,44,45
 368 -37 368 -37 358.5 -19.5 c 128,-1,46
 349 -2 349 -2 341 43 c 0,47,48
 337 65 337 65 334 82.5 c 128,-1,49
 331 100 331 100 328.5 115 c 128,-1,50
 326 130 326 130 323 141 c 128,-1,51
 320 152 320 152 317 161 c 128,-1,52
 314 170 314 170 310.5 176 c 128,-1,53
 307 182 307 182 303 185.5 c 128,-1,54
 299 189 299 189 294 190.5 c 128,-1,55
 289 192 289 192 282 192 c 0,56,57
 268 192 268 192 210 175 c 0,58,59
 114 148 114 148 107 105 c 0,60,61
 94 13 94 13 80.5 -14 c 128,-1,62
 67 -41 67 -41 35 -41 c 0,63,64
 -11 -41 -11 -41 -11 23 c 0,65,66
 -11 65 -11 65 10 132 c 256,67,68
 31 199 31 199 60 327 c 0,69,70
 69 380 69 380 89.5 438.5 c 128,-1,71
 110 497 110 497 128 527 c 0,33,34
273 373 m 0,72,73
 262 417 262 417 246.5 440.5 c 128,-1,74
 231 464 231 464 215 464 c 0,75,76
 192 464 192 464 175 420 c 0,77,78
 133 311 133 311 133 281 c 0,79,80
 133 266 133 266 140.5 260.5 c 128,-1,81
 148 255 148 255 164 255 c 0,82,83
 214 255 214 255 245 281 c 128,-1,84
 276 307 276 307 276 348 c 0,85,86
 276 360 276 360 273 373 c 0,72,73
EndSplineSet
Validated: 41
EndChar

StartChar: Eacute
Encoding: 201 201 82
Width: 467
Flags: W
LayerCount: 2
Fore
SplineSet
166 772 m 1,0,1
 161 769 161 769 156 761 c 0,2,3
 131 722 131 722 130 683 c 0,4,5
 130 681 130 681 129.5 676 c 128,-1,6
 129 671 129 671 129 668 c 128,-1,7
 129 665 129 665 129 659.5 c 128,-1,8
 129 654 129 654 129.5 651 c 128,-1,9
 130 648 130 648 131 643 c 128,-1,10
 132 638 132 638 133 635.5 c 128,-1,11
 134 633 134 633 136 630.5 c 128,-1,12
 138 628 138 628 141 626.5 c 128,-1,13
 144 625 144 625 148 625 c 0,14,15
 162 625 162 625 178 646.5 c 0,16,17
 189 662 189 662 194 685 c 0,18,19
 200 715 200 715 200 727 c 0,20,21
 200 737 200 737 198.5 744 c 128,-1,22
 197 751 197 751 195.5 753.5 c 128,-1,23
 194 756 194 756 190.244541485 762.834061135 c 0,24,25
 183.97309417 774.246636771 183.97309417 774.246636771 174 773 c 6,26,-1
 166 772 l 1,0,1
328 593 m 0,27,28
 343 603 343 603 362 603 c 0,29,30
 392 603 392 603 418 584 c 128,-1,31
 444 565 444 565 444 541 c 0,32,33
 444 509 444 509 283 495 c 0,34,35
 184 485 184 485 156.5 476.5 c 128,-1,36
 129 468 129 468 129 445 c 0,37,38
 129 439 129 439 131 430 c 0,39,40
 134 399 134 399 152.5 389.5 c 128,-1,41
 171 380 171 380 228 380 c 0,42,43
 272 380 272 380 296 370.5 c 128,-1,44
 320 361 320 361 320 346 c 0,45,46
 320 333 320 333 300 317.5 c 128,-1,47
 280 302 280 302 242 289 c 0,48,49
 191 272 191 272 162.5 237 c 128,-1,50
 134 202 134 202 134 158 c 0,51,52
 134 130 134 130 147 102 c 0,53,54
 157 79 157 79 169 70 c 128,-1,55
 181 61 181 61 204 61 c 0,56,57
 220 61 220 61 249 66 c 0,58,59
 289 72 289 72 318 72 c 0,60,61
 386 72 386 72 386 36 c 0,62,63
 386 23 386 23 376 5 c 0,64,65
 361 -23 361 -23 332 -32 c 128,-1,66
 303 -41 303 -41 228 -41 c 0,67,68
 227 -41 227 -41 223 -41 c 128,-1,69
 219 -41 219 -41 217 -41 c 0,70,71
 192 -41 192 -41 178.5 -41 c 128,-1,72
 165 -41 165 -41 146.5 -40 c 128,-1,73
 128 -39 128 -39 119.5 -37.5 c 128,-1,74
 111 -36 111 -36 99 -33 c 128,-1,75
 87 -30 87 -30 82 -26.5 c 128,-1,76
 77 -23 77 -23 70 -16.5 c 128,-1,77
 63 -10 63 -10 61 -2 c 128,-1,78
 59 6 59 6 56 17 c 128,-1,79
 53 28 53 28 52.5 41 c 128,-1,80
 52 54 52 54 52 71 c 0,81,82
 52 94 52 94 56 177 c 0,83,84
 57 208 57 208 57 237 c 0,85,86
 57 381 57 381 35 436 c 0,87,88
 20 474 20 474 20 499 c 0,89,90
 20 538 20 538 58 555.5 c 128,-1,91
 96 573 96 573 181 573 c 0,92,93
 229 573 229 573 273 579 c 128,-1,94
 317 585 317 585 328 593 c 0,27,28
EndSplineSet
Validated: 9
EndChar

StartChar: eacute
Encoding: 233 233 83
Width: 467
Flags: W
LayerCount: 2
Fore
SplineSet
166 772 m 1,0,1
 161 769 161 769 156 761 c 0,2,3
 131 722 131 722 130 683 c 0,4,5
 130 681 130 681 129.5 676 c 128,-1,6
 129 671 129 671 129 668 c 128,-1,7
 129 665 129 665 129 659.5 c 128,-1,8
 129 654 129 654 129.5 651 c 128,-1,9
 130 648 130 648 131 643 c 128,-1,10
 132 638 132 638 133 635.5 c 128,-1,11
 134 633 134 633 136 630.5 c 128,-1,12
 138 628 138 628 141 626.5 c 128,-1,13
 144 625 144 625 148 625 c 0,14,15
 162 625 162 625 178 646.5 c 0,16,17
 189 662 189 662 194 685 c 0,18,19
 200 715 200 715 200 727 c 0,20,21
 200 737 200 737 198.5 744 c 128,-1,22
 197 751 197 751 195.5 753.5 c 128,-1,23
 194 756 194 756 190.244541485 762.834061135 c 0,24,25
 183.97309417 774.246636771 183.97309417 774.246636771 174 773 c 6,26,-1
 166 772 l 1,0,1
328 593 m 0,27,28
 343 603 343 603 362 603 c 0,29,30
 392 603 392 603 418 584 c 128,-1,31
 444 565 444 565 444 541 c 0,32,33
 444 509 444 509 283 495 c 0,34,35
 184 485 184 485 156.5 476.5 c 128,-1,36
 129 468 129 468 129 445 c 0,37,38
 129 439 129 439 131 430 c 0,39,40
 134 399 134 399 152.5 389.5 c 128,-1,41
 171 380 171 380 228 380 c 0,42,43
 272 380 272 380 296 370.5 c 128,-1,44
 320 361 320 361 320 346 c 0,45,46
 320 333 320 333 300 317.5 c 128,-1,47
 280 302 280 302 242 289 c 0,48,49
 191 272 191 272 162.5 237 c 128,-1,50
 134 202 134 202 134 158 c 0,51,52
 134 130 134 130 147 102 c 0,53,54
 157 79 157 79 169 70 c 128,-1,55
 181 61 181 61 204 61 c 0,56,57
 220 61 220 61 249 66 c 0,58,59
 289 72 289 72 318 72 c 0,60,61
 386 72 386 72 386 36 c 0,62,63
 386 23 386 23 376 5 c 0,64,65
 361 -23 361 -23 332 -32 c 128,-1,66
 303 -41 303 -41 228 -41 c 0,67,68
 227 -41 227 -41 223 -41 c 128,-1,69
 219 -41 219 -41 217 -41 c 0,70,71
 192 -41 192 -41 178.5 -41 c 128,-1,72
 165 -41 165 -41 146.5 -40 c 128,-1,73
 128 -39 128 -39 119.5 -37.5 c 128,-1,74
 111 -36 111 -36 99 -33 c 128,-1,75
 87 -30 87 -30 82 -26.5 c 128,-1,76
 77 -23 77 -23 70 -16.5 c 128,-1,77
 63 -10 63 -10 61 -2 c 128,-1,78
 59 6 59 6 56 17 c 128,-1,79
 53 28 53 28 52.5 41 c 128,-1,80
 52 54 52 54 52 71 c 0,81,82
 52 94 52 94 56 177 c 0,83,84
 57 208 57 208 57 237 c 0,85,86
 57 381 57 381 35 436 c 0,87,88
 20 474 20 474 20 499 c 0,89,90
 20 538 20 538 58 555.5 c 128,-1,91
 96 573 96 573 181 573 c 0,92,93
 229 573 229 573 273 579 c 128,-1,94
 317 585 317 585 328 593 c 0,27,28
EndSplineSet
Validated: 9
EndChar

StartChar: odieresis
Encoding: 246 246 84
Width: 487
Flags: W
LayerCount: 2
Fore
SplineSet
298 757 m 5,0,-1
 269 751 l 5,1,-1
 263 747 l 5,2,3
 262 742 262 742 261 736 c 132,-1,4
 260 730 260 730 259 725 c 4,5,6
 255 706 255 706 267 689 c 132,-1,7
 279 672 279 672 299 674 c 4,8,9
 318 676 318 676 329 686 c 4,10,11
 342 698 342 698 341 716 c 4,12,13
 341 719 341 719 342 725 c 132,-1,14
 343 731 343 731 343 735 c 4,15,16
 343 740 343 740 336 745 c 132,-1,17
 329 750 329 750 321 750 c 5,18,-1
 321 752 l 5,19,-1
 298 757 l 5,0,-1
147 757 m 1,20,-1
 118 751 l 1,21,-1
 112 747 l 1,22,23
 111 742 111 742 110 736 c 128,-1,24
 109 730 109 730 108 725 c 0,25,26
 104 706 104 706 116 689 c 128,-1,27
 128 672 128 672 148 674 c 0,28,29
 167 676 167 676 178 686 c 0,30,31
 191 698 191 698 190 716 c 0,32,33
 190 719 190 719 191 725 c 128,-1,34
 192 731 192 731 192 735 c 0,35,36
 192 740 192 740 185 745 c 128,-1,37
 178 750 178 750 170 750 c 1,38,-1
 170 752 l 1,39,-1
 147 757 l 1,20,-1
125 566 m 0,40,41
 150 601 150 601 167.5 615 c 128,-1,42
 185 629 185 629 206 629 c 0,43,44
 233 629 233 629 294 599 c 0,45,46
 373 560 373 560 418 489.5 c 128,-1,47
 463 419 463 419 463 333 c 0,48,49
 463 294 463 294 460.5 275 c 128,-1,50
 458 256 458 256 443 229.5 c 128,-1,51
 428 203 428 203 408 181 c 128,-1,52
 388 159 388 159 340 110 c 0,53,54
 287 60 287 60 243 23.5 c 128,-1,55
 199 -13 199 -13 188 -13 c 0,56,57
 175 -13 175 -13 146.5 4.5 c 128,-1,58
 118 22 118 22 88 48 c 0,59,60
 59 71 59 71 47 83.5 c 128,-1,61
 35 96 35 96 26 118.5 c 128,-1,62
 17 141 17 141 16 165 c 128,-1,63
 15 189 15 189 15 241 c 0,64,65
 15 345 15 345 37 410 c 128,-1,66
 59 475 59 475 125 566 c 0,40,41
311 472 m 0,67,68
 288 495 288 495 262 512 c 128,-1,69
 236 529 236 529 225 529 c 0,70,71
 199 529 199 529 164 489 c 128,-1,72
 129 449 129 449 129 418 c 0,73,74
 129 404 129 404 123.5 390.5 c 128,-1,75
 118 377 118 377 109 373 c 0,76,77
 88 361 88 361 88 284 c 0,78,79
 88 196 88 196 113 144 c 0,80,81
 136 94 136 94 177 94 c 0,82,83
 227 94 227 94 298 166 c 0,84,85
 372 244 372 244 372 332 c 0,86,87
 372 411 372 411 311 472 c 0,67,68
EndSplineSet
Validated: 2089
EndChar

StartChar: Odieresis
Encoding: 214 214 85
Width: 487
Flags: W
LayerCount: 2
Fore
SplineSet
298 757 m 5,0,-1
 269 751 l 5,1,-1
 263 747 l 5,2,3
 262 742 262 742 261 736 c 132,-1,4
 260 730 260 730 259 725 c 4,5,6
 255 706 255 706 267 689 c 132,-1,7
 279 672 279 672 299 674 c 4,8,9
 318 676 318 676 329 686 c 4,10,11
 342 698 342 698 341 716 c 4,12,13
 341 719 341 719 342 725 c 132,-1,14
 343 731 343 731 343 735 c 4,15,16
 343 740 343 740 336 745 c 132,-1,17
 329 750 329 750 321 750 c 5,18,-1
 321 752 l 5,19,-1
 298 757 l 5,0,-1
147 757 m 1,20,-1
 118 751 l 1,21,-1
 112 747 l 1,22,23
 111 742 111 742 110 736 c 128,-1,24
 109 730 109 730 108 725 c 0,25,26
 104 706 104 706 116 689 c 128,-1,27
 128 672 128 672 148 674 c 0,28,29
 167 676 167 676 178 686 c 0,30,31
 191 698 191 698 190 716 c 0,32,33
 190 719 190 719 191 725 c 128,-1,34
 192 731 192 731 192 735 c 0,35,36
 192 740 192 740 185 745 c 128,-1,37
 178 750 178 750 170 750 c 1,38,-1
 170 752 l 1,39,-1
 147 757 l 1,20,-1
125 566 m 0,40,41
 150 601 150 601 167.5 615 c 128,-1,42
 185 629 185 629 206 629 c 0,43,44
 233 629 233 629 294 599 c 0,45,46
 373 560 373 560 418 489.5 c 128,-1,47
 463 419 463 419 463 333 c 0,48,49
 463 294 463 294 460.5 275 c 128,-1,50
 458 256 458 256 443 229.5 c 128,-1,51
 428 203 428 203 408 181 c 128,-1,52
 388 159 388 159 340 110 c 0,53,54
 287 60 287 60 243 23.5 c 128,-1,55
 199 -13 199 -13 188 -13 c 0,56,57
 175 -13 175 -13 146.5 4.5 c 128,-1,58
 118 22 118 22 88 48 c 0,59,60
 59 71 59 71 47 83.5 c 128,-1,61
 35 96 35 96 26 118.5 c 128,-1,62
 17 141 17 141 16 165 c 128,-1,63
 15 189 15 189 15 241 c 0,64,65
 15 345 15 345 37 410 c 128,-1,66
 59 475 59 475 125 566 c 0,40,41
311 472 m 0,67,68
 288 495 288 495 262 512 c 128,-1,69
 236 529 236 529 225 529 c 0,70,71
 199 529 199 529 164 489 c 128,-1,72
 129 449 129 449 129 418 c 0,73,74
 129 404 129 404 123.5 390.5 c 128,-1,75
 118 377 118 377 109 373 c 0,76,77
 88 361 88 361 88 284 c 0,78,79
 88 196 88 196 113 144 c 0,80,81
 136 94 136 94 177 94 c 0,82,83
 227 94 227 94 298 166 c 0,84,85
 372 244 372 244 372 332 c 0,86,87
 372 411 372 411 311 472 c 0,67,68
EndSplineSet
Validated: 2089
EndChar

StartChar: uacute
Encoding: 250 250 86
Width: 449
Flags: W
LayerCount: 2
Fore
SplineSet
236 773 m 28,0,1
 233 769 233 769 223.5 758 c 128,-1,2
 214 747 214 747 210 741 c 0,3,4
 179 688 179 688 182 653 c 0,5,6
 184 621 184 621 204 623 c 0,7,8
 213 624 213 624 220.5 629 c 128,-1,9
 228 634 228 634 232 638 c 128,-1,10
 236 642 236 642 243 652 c 128,-1,11
 250 662 250 662 254 666 c 0,12,13
 265 677 265 677 267 689 c 0,14,15
 273 721 273 721 275 726 c 0,16,17
 276 729 276 729 278.5 736.5 c 128,-1,18
 281 744 281 744 281 748 c 0,19,20
 281 764 281 764 273.812102073 764.422749686 c 0,21,22
 267 765 267 765 253.312102073 771.922749686 c 0,23,24
 240 779 240 779 236 773 c 28,0,1
337 626 m 0,25,26
 339 641 339 641 357 641 c 0,27,28
 372 641 372 641 390.5 629.5 c 128,-1,29
 409 618 409 618 419 600 c 0,30,31
 426 586 426 586 426 540 c 0,32,33
 426 465 426 465 410.5 368 c 128,-1,34
 395 271 395 271 377 252 c 0,35,36
 359 230 359 230 359 190 c 0,37,38
 359 173 359 173 342 141 c 128,-1,39
 325 109 325 109 303 82 c 0,40,41
 275 49 275 49 257.5 36 c 128,-1,42
 240 23 240 23 221 23 c 0,43,44
 211 23 211 23 197 26 c 0,45,46
 110 48 110 48 64.5 121 c 128,-1,47
 19 194 19 194 19 310 c 0,48,49
 19 394 19 394 43 496 c 0,50,51
 58 557 58 557 69 576.5 c 128,-1,52
 80 596 80 596 100 596 c 0,53,54
 104 596 104 596 109 596 c 0,55,56
 143 591 143 591 143 564 c 0,57,58
 143 558 143 558 141 550 c 0,59,60
 132 499 132 499 125 344 c 0,61,62
 122 296 122 296 122 263 c 0,63,64
 122 179 122 179 141 149.5 c 128,-1,65
 160 120 160 120 209 120 c 0,66,67
 235 120 235 120 249.5 137.5 c 128,-1,68
 264 155 264 155 279 206 c 0,69,70
 305 292 305 292 323 342 c 0,71,72
 339 391 339 391 339 483 c 0,73,74
 339 493 339 493 339 502 c 0,75,76
 337 562 337 562 337 626 c 0,25,26
EndSplineSet
Validated: 41
EndChar

StartChar: Uacute
Encoding: 218 218 87
Width: 449
Flags: W
LayerCount: 2
Fore
SplineSet
236 773 m 28,0,1
 233 769 233 769 223.5 758 c 128,-1,2
 214 747 214 747 210 741 c 0,3,4
 179 688 179 688 182 653 c 0,5,6
 184 621 184 621 204 623 c 0,7,8
 213 624 213 624 220.5 629 c 128,-1,9
 228 634 228 634 232 638 c 128,-1,10
 236 642 236 642 243 652 c 128,-1,11
 250 662 250 662 254 666 c 0,12,13
 265 677 265 677 267 689 c 0,14,15
 273 721 273 721 275 726 c 0,16,17
 276 729 276 729 278.5 736.5 c 128,-1,18
 281 744 281 744 281 748 c 0,19,20
 281 764 281 764 273.812102073 764.422749686 c 0,21,22
 267 765 267 765 253.312102073 771.922749686 c 0,23,24
 240 779 240 779 236 773 c 28,0,1
337 626 m 0,25,26
 339 641 339 641 357 641 c 0,27,28
 372 641 372 641 390.5 629.5 c 128,-1,29
 409 618 409 618 419 600 c 0,30,31
 426 586 426 586 426 540 c 0,32,33
 426 465 426 465 410.5 368 c 128,-1,34
 395 271 395 271 377 252 c 0,35,36
 359 230 359 230 359 190 c 0,37,38
 359 173 359 173 342 141 c 128,-1,39
 325 109 325 109 303 82 c 0,40,41
 275 49 275 49 257.5 36 c 128,-1,42
 240 23 240 23 221 23 c 0,43,44
 211 23 211 23 197 26 c 0,45,46
 110 48 110 48 64.5 121 c 128,-1,47
 19 194 19 194 19 310 c 0,48,49
 19 394 19 394 43 496 c 0,50,51
 58 557 58 557 69 576.5 c 128,-1,52
 80 596 80 596 100 596 c 0,53,54
 104 596 104 596 109 596 c 0,55,56
 143 591 143 591 143 564 c 0,57,58
 143 558 143 558 141 550 c 0,59,60
 132 499 132 499 125 344 c 0,61,62
 122 296 122 296 122 263 c 0,63,64
 122 179 122 179 141 149.5 c 128,-1,65
 160 120 160 120 209 120 c 0,66,67
 235 120 235 120 249.5 137.5 c 128,-1,68
 264 155 264 155 279 206 c 0,69,70
 305 292 305 292 323 342 c 0,71,72
 339 391 339 391 339 483 c 0,73,74
 339 493 339 493 339 502 c 0,75,76
 337 562 337 562 337 626 c 0,25,26
EndSplineSet
Validated: 41
EndChar

StartChar: Udieresis
Encoding: 220 220 88
Width: 449
Flags: W
LayerCount: 2
Fore
SplineSet
275 716 m 5,0,-1
 258 716 l 5,1,2
 254 711 254 711 246 704.5 c 132,-1,3
 238 698 238 698 233.5 691.5 c 132,-1,4
 229 685 229 685 229 673 c 4,5,6
 229 660 229 660 242.5 650 c 132,-1,7
 256 640 256 640 270 640 c 4,8,9
 286 640 286 640 296 653 c 4,10,11
 304 663 304 663 306 682 c 132,-1,12
 308 701 308 701 284 714 c 5,13,-1
 275 716 l 5,0,-1
150 697 m 1,14,-1
 133 697 l 1,15,16
 129 692 129 692 121 685.5 c 128,-1,17
 113 679 113 679 108.5 672.5 c 128,-1,18
 104 666 104 666 104 654 c 0,19,20
 104 641 104 641 117.5 631 c 128,-1,21
 131 621 131 621 145 621 c 0,22,23
 161 621 161 621 171 634 c 0,24,25
 179 644 179 644 181 663 c 128,-1,26
 183 682 183 682 159 695 c 1,27,-1
 150 697 l 1,14,-1
337 626 m 0,28,29
 339 641 339 641 357 641 c 0,30,31
 372 641 372 641 390.5 629.5 c 128,-1,32
 409 618 409 618 419 600 c 0,33,34
 426 586 426 586 426 540 c 0,35,36
 426 465 426 465 410.5 368 c 128,-1,37
 395 271 395 271 377 252 c 0,38,39
 359 230 359 230 359 190 c 0,40,41
 359 173 359 173 342 141 c 128,-1,42
 325 109 325 109 303 82 c 0,43,44
 275 49 275 49 257.5 36 c 128,-1,45
 240 23 240 23 221 23 c 0,46,47
 211 23 211 23 197 26 c 0,48,49
 110 48 110 48 64.5 121 c 128,-1,50
 19 194 19 194 19 310 c 0,51,52
 19 394 19 394 43 496 c 0,53,54
 58 557 58 557 69 576.5 c 128,-1,55
 80 596 80 596 100 596 c 0,56,57
 104 596 104 596 109 596 c 0,58,59
 143 591 143 591 143 564 c 0,60,61
 143 558 143 558 141 550 c 0,62,63
 132 499 132 499 125 344 c 0,64,65
 122 296 122 296 122 263 c 0,66,67
 122 179 122 179 141 149.5 c 128,-1,68
 160 120 160 120 209 120 c 0,69,70
 235 120 235 120 249.5 137.5 c 128,-1,71
 264 155 264 155 279 206 c 0,72,73
 305 292 305 292 323 342 c 0,74,75
 339 391 339 391 339 483 c 0,76,77
 339 493 339 493 339 502 c 0,78,79
 337 562 337 562 337 626 c 0,28,29
EndSplineSet
Validated: 41
EndChar

StartChar: udieresis
Encoding: 252 252 89
Width: 449
Flags: W
LayerCount: 2
Fore
SplineSet
275 716 m 5,0,-1
 258 716 l 5,1,2
 254 711 254 711 246 704.5 c 132,-1,3
 238 698 238 698 233.5 691.5 c 132,-1,4
 229 685 229 685 229 673 c 4,5,6
 229 660 229 660 242.5 650 c 132,-1,7
 256 640 256 640 270 640 c 4,8,9
 286 640 286 640 296 653 c 4,10,11
 304 663 304 663 306 682 c 132,-1,12
 308 701 308 701 284 714 c 5,13,-1
 275 716 l 5,0,-1
150 697 m 1,14,-1
 133 697 l 1,15,16
 129 692 129 692 121 685.5 c 128,-1,17
 113 679 113 679 108.5 672.5 c 128,-1,18
 104 666 104 666 104 654 c 0,19,20
 104 641 104 641 117.5 631 c 128,-1,21
 131 621 131 621 145 621 c 0,22,23
 161 621 161 621 171 634 c 0,24,25
 179 644 179 644 181 663 c 128,-1,26
 183 682 183 682 159 695 c 1,27,-1
 150 697 l 1,14,-1
337 626 m 0,28,29
 339 641 339 641 357 641 c 0,30,31
 372 641 372 641 390.5 629.5 c 128,-1,32
 409 618 409 618 419 600 c 0,33,34
 426 586 426 586 426 540 c 0,35,36
 426 465 426 465 410.5 368 c 128,-1,37
 395 271 395 271 377 252 c 0,38,39
 359 230 359 230 359 190 c 0,40,41
 359 173 359 173 342 141 c 128,-1,42
 325 109 325 109 303 82 c 0,43,44
 275 49 275 49 257.5 36 c 128,-1,45
 240 23 240 23 221 23 c 0,46,47
 211 23 211 23 197 26 c 0,48,49
 110 48 110 48 64.5 121 c 128,-1,50
 19 194 19 194 19 310 c 0,51,52
 19 394 19 394 43 496 c 0,53,54
 58 557 58 557 69 576.5 c 128,-1,55
 80 596 80 596 100 596 c 0,56,57
 104 596 104 596 109 596 c 0,58,59
 143 591 143 591 143 564 c 0,60,61
 143 558 143 558 141 550 c 0,62,63
 132 499 132 499 125 344 c 0,64,65
 122 296 122 296 122 263 c 0,66,67
 122 179 122 179 141 149.5 c 128,-1,68
 160 120 160 120 209 120 c 0,69,70
 235 120 235 120 249.5 137.5 c 128,-1,71
 264 155 264 155 279 206 c 0,72,73
 305 292 305 292 323 342 c 0,74,75
 339 391 339 391 339 483 c 0,76,77
 339 493 339 493 339 502 c 0,78,79
 337 562 337 562 337 626 c 0,28,29
EndSplineSet
Validated: 41
EndChar

StartChar: uhungarumlaut
Encoding: 369 369 90
Width: 449
Flags: W
LayerCount: 2
Fore
SplineSet
311 781 m 28,0,1
 308 777 308 777 298.5 766 c 132,-1,2
 289 755 289 755 285 749 c 4,3,4
 254 696 254 696 257 661 c 4,5,6
 259 629 259 629 279 631 c 4,7,8
 288 632 288 632 295.5 637 c 132,-1,9
 303 642 303 642 307 646 c 132,-1,10
 311 650 311 650 318 660 c 132,-1,11
 325 670 325 670 329 674 c 4,12,13
 340 685 340 685 342 697 c 4,14,15
 348 729 348 729 350 734 c 4,16,17
 351 737 351 737 353.5 744.5 c 132,-1,18
 356 752 356 752 356 756 c 4,19,20
 356 772 356 772 348.8125 772.422851562 c 4,21,22
 342 773 342 773 328.3125 779.922851562 c 4,23,24
 315 787 315 787 311 781 c 28,0,1
203 774 m 24,25,26
 200 770 200 770 190.5 759 c 128,-1,27
 181 748 181 748 177 742 c 0,28,29
 146 689 146 689 149 654 c 0,30,31
 151 622 151 622 171 624 c 0,32,33
 180 625 180 625 187.5 630 c 128,-1,34
 195 635 195 635 199 639 c 128,-1,35
 203 643 203 643 210 653 c 128,-1,36
 217 663 217 663 221 667 c 0,37,38
 232 678 232 678 234 690 c 0,39,40
 240 722 240 722 242 727 c 0,41,42
 243 730 243 730 245.5 737.5 c 128,-1,43
 248 745 248 745 248 749 c 0,44,45
 248 765 248 765 240.8125 765.422851562 c 0,46,47
 234 766 234 766 220.3125 772.922851562 c 0,48,49
 207 780 207 780 203 774 c 24,25,26
337 626 m 0,50,51
 339 641 339 641 357 641 c 0,52,53
 372 641 372 641 390.5 629.5 c 128,-1,54
 409 618 409 618 419 600 c 0,55,56
 426 586 426 586 426 540 c 0,57,58
 426 465 426 465 410.5 368 c 128,-1,59
 395 271 395 271 377 252 c 0,60,61
 359 230 359 230 359 190 c 0,62,63
 359 173 359 173 342 141 c 128,-1,64
 325 109 325 109 303 82 c 0,65,66
 275 49 275 49 257.5 36 c 128,-1,67
 240 23 240 23 221 23 c 0,68,69
 211 23 211 23 197 26 c 0,70,71
 110 48 110 48 64.5 121 c 128,-1,72
 19 194 19 194 19 310 c 0,73,74
 19 394 19 394 43 496 c 0,75,76
 58 557 58 557 69 576.5 c 128,-1,77
 80 596 80 596 100 596 c 0,78,79
 104 596 104 596 109 596 c 0,80,81
 143 591 143 591 143 564 c 0,82,83
 143 558 143 558 141 550 c 0,84,85
 132 499 132 499 125 344 c 0,86,87
 122 296 122 296 122 263 c 0,88,89
 122 179 122 179 141 149.5 c 128,-1,90
 160 120 160 120 209 120 c 0,91,92
 235 120 235 120 249.5 137.5 c 128,-1,93
 264 155 264 155 279 206 c 0,94,95
 305 292 305 292 323 342 c 0,96,97
 339 391 339 391 339 483 c 0,98,99
 339 493 339 493 339 502 c 0,100,101
 337 562 337 562 337 626 c 0,50,51
EndSplineSet
EndChar

StartChar: Uhungarumlaut
Encoding: 368 368 91
Width: 449
Flags: W
LayerCount: 2
Fore
SplineSet
311 781 m 28,0,1
 308 777 308 777 298.5 766 c 132,-1,2
 289 755 289 755 285 749 c 4,3,4
 254 696 254 696 257 661 c 4,5,6
 259 629 259 629 279 631 c 4,7,8
 288 632 288 632 295.5 637 c 132,-1,9
 303 642 303 642 307 646 c 132,-1,10
 311 650 311 650 318 660 c 132,-1,11
 325 670 325 670 329 674 c 4,12,13
 340 685 340 685 342 697 c 4,14,15
 348 729 348 729 350 734 c 4,16,17
 351 737 351 737 353.5 744.5 c 132,-1,18
 356 752 356 752 356 756 c 4,19,20
 356 772 356 772 348.8125 772.422851562 c 4,21,22
 342 773 342 773 328.3125 779.922851562 c 4,23,24
 315 787 315 787 311 781 c 28,0,1
203 774 m 24,25,26
 200 770 200 770 190.5 759 c 128,-1,27
 181 748 181 748 177 742 c 0,28,29
 146 689 146 689 149 654 c 0,30,31
 151 622 151 622 171 624 c 0,32,33
 180 625 180 625 187.5 630 c 128,-1,34
 195 635 195 635 199 639 c 128,-1,35
 203 643 203 643 210 653 c 128,-1,36
 217 663 217 663 221 667 c 0,37,38
 232 678 232 678 234 690 c 0,39,40
 240 722 240 722 242 727 c 0,41,42
 243 730 243 730 245.5 737.5 c 128,-1,43
 248 745 248 745 248 749 c 0,44,45
 248 765 248 765 240.8125 765.422851562 c 0,46,47
 234 766 234 766 220.3125 772.922851562 c 0,48,49
 207 780 207 780 203 774 c 24,25,26
337 626 m 0,50,51
 339 641 339 641 357 641 c 0,52,53
 372 641 372 641 390.5 629.5 c 128,-1,54
 409 618 409 618 419 600 c 0,55,56
 426 586 426 586 426 540 c 0,57,58
 426 465 426 465 410.5 368 c 128,-1,59
 395 271 395 271 377 252 c 0,60,61
 359 230 359 230 359 190 c 0,62,63
 359 173 359 173 342 141 c 128,-1,64
 325 109 325 109 303 82 c 0,65,66
 275 49 275 49 257.5 36 c 128,-1,67
 240 23 240 23 221 23 c 0,68,69
 211 23 211 23 197 26 c 0,70,71
 110 48 110 48 64.5 121 c 128,-1,72
 19 194 19 194 19 310 c 0,73,74
 19 394 19 394 43 496 c 0,75,76
 58 557 58 557 69 576.5 c 128,-1,77
 80 596 80 596 100 596 c 0,78,79
 104 596 104 596 109 596 c 0,80,81
 143 591 143 591 143 564 c 0,82,83
 143 558 143 558 141 550 c 0,84,85
 132 499 132 499 125 344 c 0,86,87
 122 296 122 296 122 263 c 0,88,89
 122 179 122 179 141 149.5 c 128,-1,90
 160 120 160 120 209 120 c 0,91,92
 235 120 235 120 249.5 137.5 c 128,-1,93
 264 155 264 155 279 206 c 0,94,95
 305 292 305 292 323 342 c 0,96,97
 339 391 339 391 339 483 c 0,98,99
 339 493 339 493 339 502 c 0,100,101
 337 562 337 562 337 626 c 0,50,51
EndSplineSet
EndChar

StartChar: Ohungarumlaut
Encoding: 336 336 92
Width: 487
Flags: W
LayerCount: 2
Fore
SplineSet
182 791 m 5,0,-1
 180 788 l 6,1,2
 180 787 180 787 168 764 c 4,3,4
 160 748 160 748 154.5 734 c 132,-1,5
 149 720 149 720 146 705 c 4,6,7
 142 681 142 681 142 672 c 4,8,9
 142 669 142 669 143 664.5 c 132,-1,10
 144 660 144 660 144 657 c 4,11,12
 144 651 144 651 155 646.5 c 132,-1,13
 166 642 166 642 174 642 c 5,14,15
 184 649 184 649 192 660 c 4,16,17
 202 677 202 677 203 680 c 4,18,19
 205 689 205 689 214 705 c 132,-1,20
 223 721 223 721 224 729 c 4,21,22
 226 747 226 747 224 768 c 4,23,24
 223 777 223 777 210 785.5 c 132,-1,25
 197 794 197 794 188 794 c 6,26,-1
 185 793 l 5,27,-1
 182 791 l 5,0,-1
332 789 m 1,28,-1
 330 786 l 2,29,30
 330 785 330 785 318 762 c 0,31,32
 310 746 310 746 304.5 732 c 128,-1,33
 299 718 299 718 296 703 c 0,34,35
 292 679 292 679 292 670 c 0,36,37
 292 667 292 667 293 662.5 c 128,-1,38
 294 658 294 658 294 655 c 0,39,40
 294 649 294 649 305 644.5 c 128,-1,41
 316 640 316 640 324 640 c 1,42,43
 334 647 334 647 342 658 c 0,44,45
 352 675 352 675 353 678 c 0,46,47
 355 687 355 687 364 703 c 128,-1,48
 373 719 373 719 374 727 c 0,49,50
 376 745 376 745 374 766 c 0,51,52
 373 775 373 775 360 783.5 c 128,-1,53
 347 792 347 792 338 792 c 2,54,-1
 335 791 l 1,55,-1
 332 789 l 1,28,-1
125 566 m 0,56,57
 150 601 150 601 167.5 615 c 128,-1,58
 185 629 185 629 206 629 c 0,59,60
 233 629 233 629 294 599 c 0,61,62
 373 560 373 560 418 489.5 c 128,-1,63
 463 419 463 419 463 333 c 0,64,65
 463 294 463 294 460.5 275 c 128,-1,66
 458 256 458 256 443 229.5 c 128,-1,67
 428 203 428 203 408 181 c 128,-1,68
 388 159 388 159 340 110 c 0,69,70
 287 60 287 60 243 23.5 c 128,-1,71
 199 -13 199 -13 188 -13 c 0,72,73
 175 -13 175 -13 146.5 4.5 c 128,-1,74
 118 22 118 22 88 48 c 0,75,76
 59 71 59 71 47 83.5 c 128,-1,77
 35 96 35 96 26 118.5 c 128,-1,78
 17 141 17 141 16 165 c 128,-1,79
 15 189 15 189 15 241 c 0,80,81
 15 345 15 345 37 410 c 128,-1,82
 59 475 59 475 125 566 c 0,56,57
311 472 m 0,83,84
 288 495 288 495 262 512 c 128,-1,85
 236 529 236 529 225 529 c 0,86,87
 199 529 199 529 164 489 c 128,-1,88
 129 449 129 449 129 418 c 0,89,90
 129 404 129 404 123.5 390.5 c 128,-1,91
 118 377 118 377 109 373 c 0,92,93
 88 361 88 361 88 284 c 0,94,95
 88 196 88 196 113 144 c 0,96,97
 136 94 136 94 177 94 c 0,98,99
 227 94 227 94 298 166 c 0,100,101
 372 244 372 244 372 332 c 0,102,103
 372 411 372 411 311 472 c 0,83,84
EndSplineSet
EndChar

StartChar: ohungarumlaut
Encoding: 337 337 93
Width: 487
Flags: W
LayerCount: 2
Fore
SplineSet
182 791 m 5,0,-1
 180 788 l 6,1,2
 180 787 180 787 168 764 c 4,3,4
 160 748 160 748 154.5 734 c 132,-1,5
 149 720 149 720 146 705 c 4,6,7
 142 681 142 681 142 672 c 4,8,9
 142 669 142 669 143 664.5 c 132,-1,10
 144 660 144 660 144 657 c 4,11,12
 144 651 144 651 155 646.5 c 132,-1,13
 166 642 166 642 174 642 c 5,14,15
 184 649 184 649 192 660 c 4,16,17
 202 677 202 677 203 680 c 4,18,19
 205 689 205 689 214 705 c 132,-1,20
 223 721 223 721 224 729 c 4,21,22
 226 747 226 747 224 768 c 4,23,24
 223 777 223 777 210 785.5 c 132,-1,25
 197 794 197 794 188 794 c 6,26,-1
 185 793 l 5,27,-1
 182 791 l 5,0,-1
332 789 m 1,28,-1
 330 786 l 2,29,30
 330 785 330 785 318 762 c 0,31,32
 310 746 310 746 304.5 732 c 128,-1,33
 299 718 299 718 296 703 c 0,34,35
 292 679 292 679 292 670 c 0,36,37
 292 667 292 667 293 662.5 c 128,-1,38
 294 658 294 658 294 655 c 0,39,40
 294 649 294 649 305 644.5 c 128,-1,41
 316 640 316 640 324 640 c 1,42,43
 334 647 334 647 342 658 c 0,44,45
 352 675 352 675 353 678 c 0,46,47
 355 687 355 687 364 703 c 128,-1,48
 373 719 373 719 374 727 c 0,49,50
 376 745 376 745 374 766 c 0,51,52
 373 775 373 775 360 783.5 c 128,-1,53
 347 792 347 792 338 792 c 2,54,-1
 335 791 l 1,55,-1
 332 789 l 1,28,-1
125 566 m 0,56,57
 150 601 150 601 167.5 615 c 128,-1,58
 185 629 185 629 206 629 c 0,59,60
 233 629 233 629 294 599 c 0,61,62
 373 560 373 560 418 489.5 c 128,-1,63
 463 419 463 419 463 333 c 0,64,65
 463 294 463 294 460.5 275 c 128,-1,66
 458 256 458 256 443 229.5 c 128,-1,67
 428 203 428 203 408 181 c 128,-1,68
 388 159 388 159 340 110 c 0,69,70
 287 60 287 60 243 23.5 c 128,-1,71
 199 -13 199 -13 188 -13 c 0,72,73
 175 -13 175 -13 146.5 4.5 c 128,-1,74
 118 22 118 22 88 48 c 0,75,76
 59 71 59 71 47 83.5 c 128,-1,77
 35 96 35 96 26 118.5 c 128,-1,78
 17 141 17 141 16 165 c 128,-1,79
 15 189 15 189 15 241 c 0,80,81
 15 345 15 345 37 410 c 128,-1,82
 59 475 59 475 125 566 c 0,56,57
311 472 m 0,83,84
 288 495 288 495 262 512 c 128,-1,85
 236 529 236 529 225 529 c 0,86,87
 199 529 199 529 164 489 c 128,-1,88
 129 449 129 449 129 418 c 0,89,90
 129 404 129 404 123.5 390.5 c 128,-1,91
 118 377 118 377 109 373 c 0,92,93
 88 361 88 361 88 284 c 0,94,95
 88 196 88 196 113 144 c 0,96,97
 136 94 136 94 177 94 c 0,98,99
 227 94 227 94 298 166 c 0,100,101
 372 244 372 244 372 332 c 0,102,103
 372 411 372 411 311 472 c 0,83,84
EndSplineSet
EndChar

StartChar: bullet
Encoding: 8226 8226 94
Width: 1000
LayerCount: 2
Fore
SplineSet
529 456 m 1,24,-1
 455 472 l 1,1,-1
 441 472 l 2,2,3
 425 472 425 472 407 456 c 128,-1,4
 389 440 389 440 389 424 c 0,5,6
 389 418 389 418 387 409 c 128,-1,7
 385 400 385 400 385 394 c 0,8,9
 385 386 385 386 387 376 c 0,10,11
 389 359 389 359 389 358 c 0,12,13
 402 308 402 308 465 302 c 0,14,15
 492 299 492 299 511 300 c 0,16,17
 538 301 538 301 547 344 c 0,18,19
 548 349 548 349 553.5 374 c 128,-1,20
 559 399 559 399 557 414 c 0,21,22
 554 439 554 439 553 444 c 1,23,-1
 529 456 l 1,24,-1
EndSplineSet
EndChar
